<?xml version="1.0" encoding="utf-8"?>
<!-- Generator: Adobe Illustrator 19.0.0, SVG Export Plug-In . SVG Version: 6.00 Build 0)  -->
<svg version="1.1" id="Layer_1" xmlns="http://www.w3.org/2000/svg" xmlns:xlink="http://www.w3.org/1999/xlink" x="0px" y="0px"
	 viewBox="0 0 1400 980" style="enable-background:new 0 0 1400 980;" xml:space="preserve">
<style type="text/css">
	.st0{fill:#6D6B6A;}
	.st1{fill:#CAB49D;}
	.st2{fill:none;stroke:#504C40;stroke-width:5;stroke-miterlimit:10;}
	.st3{fill:#2E342C;}
	.st4{fill:#545A4E;}
	.st5{fill:#FFFFFF;}
	.st6{fill:#41473D;}
	.st7{font-family:'AmericanTypewriter-CondensedBold';}
	.st8{font-size:22.9088px;}
	.st9{fill:#000105;}
	.st10{fill:#C11423;}
	.st11{letter-spacing:2;}
	.st12{font-size:40.695px;}
	.st13{letter-spacing:4;}
	.st14{fill:#AACAD6;}
	.st15{fill:none;stroke:#000105;stroke-width:5;stroke-miterlimit:10;}
	.st16{letter-spacing:8;}
	.st17{fill:#EA624A;}
	.st18{fill:none;stroke:#4F342D;stroke-width:5;stroke-miterlimit:10;}
	.st19{fill:#4F342D;}
	.st20{fill:#734F46;}
	.st21{fill:#EBC854;}
	.st22{fill:none;stroke:#C11423;stroke-width:5;stroke-miterlimit:10;}
	.st23{fill:#F1BB4A;}
	.st24{fill:#FFC54E;}
	.st25{opacity:5.000000e-02;}
	.st26{fill:#231F20;}
	.st27{fill:#E11F26;}
	.st28{fill:#C38C63;}
	.st29{fill:none;stroke:#40281C;stroke-width:5;stroke-miterlimit:10;}
	.st30{fill:#40281C;}
	.st31{font-size:33.9568px;}
	.st32{letter-spacing:6;}
	.st33{clip-path:url(#SVGID_2_);fill:#40281C;}
	.st34{clip-path:url(#SVGID_4_);fill:#40281C;}
	.st35{fill:#250E00;}
	.st36{fill:#C4A6B2;}
	.st37{fill:none;stroke:#4B4C50;stroke-width:5;stroke-miterlimit:10;}
	.st38{fill:#C8CBCE;}
</style>
<rect class="st0" width="1400" height="980"/>
<g>
	<g>
		<g>
			<path class="st1" d="M676.1,308c0-3.9,3.2-7.1,7.1-7.1v-5.8c-3.9,0-7.1-3.2-7.1-7.1c0-3.9,3.2-7.1,7.1-7.1v-5.8
				c-3.9,0-7.1-3.2-7.1-7.1c0-3.9,3.2-7.1,7.1-7.1v-5.8c-3.9,0-7.1-3.2-7.1-7.1c0-3.9,3.2-7.1,7.1-7.1v-5.8c-3.9,0-7.1-3.2-7.1-7.1
				c0-3.9,3.2-7.1,7.1-7.1v-5.8c-3.9,0-7.1-3.2-7.1-7.1c0-3.9,3.2-7.1,7.1-7.1v-5.8c-3.9,0-7.1-3.2-7.1-7.1c0-3.9,3.2-7.1,7.1-7.1
				v-5.8c-3.9,0-7.1-3.2-7.1-7.1c0-3.9,3.2-7.1,7.1-7.1v-5.8c-3.9,0-7.1-3.2-7.1-7.1c0-3.9,3.2-7.1,7.1-7.1v-5.8
				c-3.9,0-7.1-3.2-7.1-7.1c0-3.9,3.2-7.1,7.1-7.1v-5.8c-3.9,0-7.1-3.2-7.1-7.1c0-3.9,3.2-7.1,7.1-7.1v-5.8c-3.9,0-7.1-3.2-7.1-7.1
				c0-3.9,3.2-7.1,7.1-7.1v-5.8c-3.9,0-7.1-3.2-7.1-7.1c0-3.9,3.2-7.1,7.1-7.1V56H165.7v5.5c3.6,0.4,6.4,3.4,6.4,7
				c0,3.7-2.8,6.7-6.4,7v5.9c3.6,0.3,6.4,3.4,6.4,7s-2.8,6.7-6.4,7v5.9c3.6,0.4,6.4,3.4,6.4,7c0,3.7-2.8,6.7-6.4,7v5.9
				c3.6,0.4,6.4,3.4,6.4,7c0,3.7-2.8,6.7-6.4,7v5.9c3.6,0.4,6.4,3.4,6.4,7c0,3.7-2.8,6.7-6.4,7v5.9c3.6,0.4,6.4,3.4,6.4,7
				c0,3.7-2.8,6.7-6.4,7v5.9c3.6,0.4,6.4,3.4,6.4,7c0,3.7-2.8,6.7-6.4,7v5.9c3.6,0.3,6.4,3.4,6.4,7c0,3.7-2.8,6.7-6.4,7v5.9
				c3.6,0.4,6.4,3.4,6.4,7s-2.8,6.7-6.4,7v5.9c3.6,0.4,6.4,3.4,6.4,7c0,3.7-2.8,6.7-6.4,7v5.9c3.6,0.4,6.4,3.4,6.4,7
				c0,3.7-2.8,6.7-6.4,7v5.9c3.6,0.4,6.4,3.4,6.4,7c0,3.7-2.8,6.7-6.4,7v5.9c3.6,0.4,6.4,3.4,6.4,7c0,3.7-2.8,6.7-6.4,7v5.5h517.4
				v-5.5C679.2,315.1,676.1,311.9,676.1,308z"/>
		</g>
		<rect x="185.5" y="69.1" class="st2" width="477.9" height="238.3"/>
		<line class="st2" x1="246.7" y1="69.1" x2="246.7" y2="307.4"/>
		<line class="st2" x1="341.8" y1="69.1" x2="341.8" y2="307.4"/>
		<g>
			<g>
				<g>
					<path class="st3" d="M447.2,117.5c-10.9-2.9-18.8-19.1-8.9-22c6.2-1.9,10.4,6.5,10.4,6.5c2.4-9.3,14.7-18.3,16.4,1.8
						c9-5.8,21.8-8,12.5,8.3C468.4,128.3,447.2,117.5,447.2,117.5z"/>
				</g>
				<g>
					<path class="st3" d="M591,151.9c-11.2,6.5-19.9,4.9-19.9,4.9s3-8.3,14.2-14.8c7.3-4.2,10.7-3.2,12.2-0.5
						C599.1,144.2,598.3,147.6,591,151.9z"/>
				</g>
				<g>
					<path class="st4" d="M585.9,142.6c-6.5,11.2-14.8,14.2-14.8,14.2s-1.5-8.7,4.9-19.9c4.2-7.3,7.6-8.1,10.3-6.5
						C589.1,131.9,590.1,135.3,585.9,142.6z"/>
				</g>
				<g>
					<path class="st3" d="M576.8,137.1c0,12.9-5.7,19.7-5.7,19.7s-5.7-6.8-5.7-19.7c0-8.4,2.5-10.8,5.7-10.8
						C574.3,126.3,576.8,128.7,576.8,137.1z"/>
				</g>
				<g>
					<path class="st4" d="M455.6,111.5c24.5,0,24.9,42.8,49.2,45.2c24.3,2.5,65.7-5.8,68.6-2.9c2.9,2.9,6.2,80.2-77.7,80.2
						S425,111.5,455.6,111.5z"/>
				</g>
				<g>
					<path class="st3" d="M470,186.6c0-9.1,8.7-20,30.1-17.8c21.5,2.2,37,15,55,11.1c-2.1,11.6-19.8,24.7-43.5,28
						C486.8,211.4,470,202.1,470,186.6z"/>
				</g>
				<g>
					<circle class="st3" cx="450.7" cy="134.7" r="4.2"/>
				</g>
				<g>
					<circle class="st5" cx="453" cy="132.4" r="1.9"/>
				</g>
				<g>
					<path class="st3" d="M420.6,126.3l18.3,9.7c0,0,1.1,2.5,0.6,6.5c-0.5,4.1-2.3,5.5-2.3,5.5l-20,2l12.7-9.6L420.6,126.3z"/>
				</g>
				<g>
					<path class="st3" d="M436.1,149.3c3.7,6.6,7.5,26.9-3.7,26c-5.9-0.5-5.4-6.2-5.4-6.2c-8.1,2.7-11.4-7.1-1.9-11
						C434.3,154.5,436.1,149.3,436.1,149.3z"/>
				</g>
			</g>
			<g>
				<path class="st6" d="M430.6,220.2c-18.2-1.2-37.1,14.4-48.4,28.8l9.7,4.4l-6.3,33.5c11.3-14.4,25.4-30,45-30.7V220.2z"/>
			</g>
			<g>
				<path class="st3" d="M403.1,256.7c0,0,11.6-7.2,27.5-0.5v-22.4C430.6,233.7,404.4,242,403.1,256.7"/>
			</g>
			<g>
				<path class="st6" d="M570.6,247.8c18.2,1.2,37.1-14.4,48.4-28.8l-9.7-4.4l6.3-33.5c-11.3,14.4-25.4,30-45,30.7V247.8z"/>
			</g>
			<g>
				<path class="st3" d="M598.1,211.3c0,0-11.6,7.2-27.5,0.5v22.4C570.6,234.3,596.8,226,598.1,211.3"/>
			</g>
			<g>
				<path class="st6" d="M550.8,229.4c-17.4-1.1-33.9-7.7-50.2-14.1v0c-16.2-6.4-32.8-13-50.2-14.1c-17.5-1.1-36.5,4.3-47.3,18.1
					v37.3c10.9-13.8,29.8-19.2,47.3-18.1c17.4,1.1,33.9,7.7,50.2,14.1v0c16.2,6.4,32.7,13,50.2,14.1c17.5,1.1,36.5-4.3,47.3-18.1
					v-37.3C587.3,225.1,568.3,230.5,550.8,229.4"/>
			</g>
			<g>
				<g>
					<path class="st1" d="M424.4,225.2c-0.1,4.7-3.3,8.6-7.6,10.5c-4.9,2.2-8.9,1.2-8.9-4c0-5.2,3.1-11.4,7.2-13.6
						c1.9-1,3.6-1.1,4.9-0.4c-0.1-0.6-0.1-0.9-0.2-1.5c1.3-0.5,1.9-0.8,3.2-1.2c0.4,2.7,0.5,4.2,0.9,6.9c-1.3,0.4-2,0.7-3.3,1.2
						c-0.9-2.2-2.9-2.8-5.1-1.7c-2.7,1.4-4.5,4.8-4.4,8.1c0.1,3.2,2.4,4.1,5.3,2.7c2.3-1.1,4-3.1,4.3-5.8
						C422.2,225.9,422.9,225.7,424.4,225.2z"/>
					<path class="st1" d="M444.7,220c0.6,5.3-2.9,9.4-8,10.1c-5.1,0.7-9.6-2.2-10.3-7.2c-0.7-5,2.6-10.3,7.8-11.2
						C439.3,210.8,444.1,214.7,444.7,220z M440.9,220.3c-0.4-3.2-3.1-5.6-6.2-5.1c-3.1,0.5-5,3.6-4.6,6.7c0.4,3.1,3,5.1,6.2,4.7
						C439.3,226.2,441.3,223.5,440.9,220.3z"/>
					<path class="st1" d="M463.8,215.4c0.1,2.6,0.1,4,0.2,6.6c0.2,5.5-2.8,8.1-7.5,7.7c-4.7-0.4-8.2-3.5-8.8-9
						c-0.3-2.6-0.4-4-0.7-6.6c-0.8,0-1.3,0-2.1,0.1c-0.2-1.3-0.2-2-0.4-3.3c3.3-0.1,4.9-0.1,8.3,0c0.1,1.3,0.2,2,0.3,3.3
						c-0.9,0-1.3-0.1-2.1-0.1c0.3,2.6,0.4,4,0.6,6.7c0.3,3.1,2.1,5.1,4.7,5.3c2.5,0.2,4.1-1.6,4-4.6c-0.1-2.7-0.2-4-0.4-6.7
						c-0.9-0.1-1.3-0.2-2.2-0.2c-0.1-1.3-0.1-2-0.2-3.3c3.4,0.3,5.1,0.6,8.4,1.2c0,1.3,0,1.9,0.1,3.3
						C465.1,215.6,464.6,215.6,463.8,215.4z"/>
					<path class="st1" d="M484.7,221.3c0,5.7,0,8.8,0,14.4c-1.1-0.4-1.7-0.6-2.8-1c-3.6-5.4-5.4-8.3-9.1-13.6c0,3.1,0,4.7,0,7.7
						c0.8,0.2,1.2,0.3,2,0.5c0,1.3,0,1.9,0,3.2c-3-0.8-4.5-1.1-7.6-1.6c0-1.3,0-1.9-0.1-3.2c0.8,0.1,1.2,0.2,2,0.4
						c0-4.5,0-7-0.1-11.5c-0.9-0.2-1.3-0.3-2.1-0.4c0-1.3,0-2-0.1-3.2c2,0.4,3,0.6,4.8,1.1c3.7,5.4,5.6,8.4,9.4,14.3
						c0-3.3,0-4.9,0-8.1c-0.8-0.3-1.2-0.4-1.9-0.7c0-1.3,0-1.9,0-3.2c3,1.1,4.5,1.6,7.6,2.9c0,1.2,0,1.9,0,3.2
						C485.9,221.8,485.5,221.6,484.7,221.3z"/>
					<path class="st1" d="M504.2,232.9c-1.3-0.6-1.9-0.9-3.2-1.5c0-1.1,0-1.7,0-2.8c-1.2-0.6-1.8-0.8-3.1-1.4c0,4.3,0,6.6,0,10.9
						c1.1,0.5,1.6,0.7,2.7,1.2c0,1.3,0,1.9,0,3.2c-3.6-1.7-5.5-2.5-9.1-4.1c0-1.2,0-1.9,0-3.2c1.1,0.5,1.6,0.7,2.7,1.2
						c0-4.3,0-6.6,0-10.9c-1.2-0.6-1.8-0.8-3.1-1.4c0,1.1,0,1.7,0,2.8c-1.3-0.6-1.9-0.8-3.2-1.4c0-2.5,0-3.8,0-6.2
						c6.5,2.7,9.7,4.3,16.2,7.3C504.2,229.2,504.2,230.4,504.2,232.9z"/>
					<path class="st1" d="M516.8,246.4c0.8,0.3,1.3,0.5,2.1,0.8c0,1.3,0,1.9,0,3.2c-3.2-1.2-4.8-1.9-8-3.2c0-1.3,0-1.9,0-3.2
						c0.9,0.4,1.3,0.5,2.1,0.9c0-1,0-1.4,0-2.4c-2.1-4.3-3.1-6.5-5.2-10.8c-1-0.5-1.5-0.7-2.6-1.2c0-1.3,0-1.9,0-3.2
						c3.4,1.6,5.1,2.3,8.6,3.8c0,1.3,0,1.9,0,3.2c-0.8-0.3-1.1-0.5-1.9-0.8c1.2,2.5,1.8,3.7,2.9,6.2c1.2-1.5,1.8-2.3,3-3.8
						c-0.7-0.3-1.1-0.4-1.9-0.7c0-1.3,0-1.9,0-3.2c3.4,1.4,5.1,2,8.5,3.1c0,1.3,0,1.9,0,3.2c-1-0.3-1.5-0.5-2.5-0.8
						c-2.1,2.7-3.1,4-5.1,6.7C516.8,244.9,516.8,245.4,516.8,246.4z"/>
					<path class="st1" d="M547.5,244.8c-1.3,0-2-0.1-3.3-0.1c0-1.1,0-1.6,0-2.6c-2.5-0.2-3.7-0.3-6.1-0.6c0,1.7,0,2.5,0,4.2
						c2.5,0.3,3.7,0.5,6.2,0.6c0,1.3,0,2,0,3.3c-2.5-0.2-3.7-0.3-6.2-0.6c0,1.2,0,1.9,0,3.1c1.1,0.1,1.7,0.2,2.8,0.3
						c0,1.2,0,1.9,0,3.1c-3.4-0.3-5.1-0.6-8.5-1.2c0-1.3,0-1.9,0-3.1c0.8,0.2,1.2,0.2,2,0.4c0-4.3,0-6.5,0-10.8
						c-0.8-0.1-1.2-0.2-2-0.4c0-1.3,0-1.9,0-3.1c6,1.3,9,1.6,15.1,1.8C547.5,241.3,547.5,242.4,547.5,244.8z"/>
					<path class="st1" d="M566.1,254.2c-3.1,0.6-4.7,0.8-7.9,1.2c0-1.2,0-1.9,0-3.1c0.8-0.1,1.3-0.1,2.1-0.2c-0.3-0.7-0.5-1-0.8-1.6
						c-2.9,0.3-4.3,0.4-7.2,0.5c-0.3,0.7-0.5,1.1-0.8,1.8c0.8,0,1.1,0,1.9-0.1c0,1.2,0,1.9,0,3.1c-3,0.1-4.5,0.1-7.5,0
						c0-1.2,0-1.9,0-3.1c0.7,0,1,0,1.6,0c2.1-4.2,3.1-6.4,5.2-10.7c-0.9,0-1.4,0-2.3,0.1c0-1.2,0-1.9,0-3.1c3,0,4.5-0.1,7.4-0.4
						c2.6,5.3,3.8,7.8,6.3,12.9c0.8-0.1,1.1-0.2,1.9-0.4C566.2,252.3,566.2,253,566.1,254.2z M556.1,242.8c-0.9,2-1.4,3-2.3,5.1
						c1.8-0.1,2.7-0.2,4.5-0.3C557.4,245.6,557,244.7,556.1,242.8z"/>
					<path class="st1" d="M572.6,249.6c0.8-0.2,1.2-0.3,2-0.6c0,1.3,0,1.9-0.1,3.1c-3,0.9-4.5,1.3-7.6,1.9c0-1.2,0-1.9,0.1-3.1
						c0.8-0.2,1.2-0.3,2-0.4c0.1-4.3,0.1-6.4,0.2-10.7c-0.8,0.2-1.2,0.3-2,0.4c0-1.2,0-1.9,0.1-3.1c3.1-0.7,4.6-1.1,7.6-2
						c0,1.3,0,1.9-0.1,3.1c-0.8,0.2-1.2,0.4-2,0.6C572.7,243.1,572.7,245.3,572.6,249.6z"/>
					<path class="st1" d="M593.3,243.5c-2.5,1.6-3.8,2.3-6.4,3.6c0-1.1,0-1.7,0-2.8c-0.8-0.7-1.2-1-2-1.7c-1.1,0.5-1.7,0.8-2.8,1.2
						c0,1,0,1.5,0,2.4c0.7-0.3,1.1-0.5,1.9-0.8c0,1.3,0,1.9-0.1,3.1c-2.9,1.3-4.3,1.9-7.3,2.9c0-1.3,0-1.9,0.1-3.1
						c0.8-0.3,1.2-0.4,1.9-0.7c0.1-4.3,0.1-6.5,0.2-10.8c-0.8,0.3-1.1,0.4-1.9,0.7c0-1.3,0-1.9,0.1-3.1c3.5-1.2,5.2-1.9,8.6-3.6
						c3.7-1.8,6-0.9,6,2.6c0,2.3-1.1,4.7-2.9,6.6c0.9,0.7,1.4,1.1,2.3,1.8c1-0.6,1.5-0.9,2.4-1.5
						C593.3,241.7,593.3,242.3,593.3,243.5z M585.4,239.3c1.7-0.8,2.8-2.5,2.8-4c0-1.6-1.1-1.9-2.8-1.1c-1.3,0.6-1.9,0.9-3.2,1.5
						c0,2-0.1,3.1-0.1,5.1C583.5,240.2,584.1,239.9,585.4,239.3z"/>
				</g>
			</g>
			<g>
				<path class="st6" d="M469,282.4h-7.3v-2.8h7.3V282.4z"/>
				<path class="st6" d="M487,286.3h-10.3v-1.6l4.6-4.5c1.6-1.6,2.2-2.7,2.2-3.7c0-1-0.7-2-2-2c-1.2,0-2.1,0.8-2.1,2.1h-2.7
					c0-2.8,2-4.6,5-4.6c3,0,4.9,2,4.9,4.4c0,1.8-0.8,3.2-2.9,5.2l-2.1,2.1h5.5V286.3z"/>
				<path class="st6" d="M501.2,279.3c0,4.2-2.3,7.3-6.4,7.3c-4,0-6.4-3.1-6.4-7.3c0-4.2,2.4-7.3,6.4-7.3
					C498.8,272,501.2,275.2,501.2,279.3z M498.2,279.3c0-2.6-1.1-4.6-3.4-4.6c-2.3,0-3.4,2-3.4,4.6c0,2.6,1.1,4.6,3.4,4.6
					C497.1,284,498.2,281.9,498.2,279.3z"/>
				<path class="st6" d="M512.7,286.3h-9.8v-2.6h3.5v-8.3l-3.4,1V274l4.6-1.6h1.7v11.4h3.3V286.3z"/>
				<path class="st6" d="M519.5,276.7c3,0.1,5.1,2.2,5.1,4.9c0,2.8-2.3,5.1-5.5,5.1c-3.3,0-5.5-2.3-5.5-5c0-1.2,0.5-2.2,1.3-3.5
					l4.2-5.8h3.4L519.5,276.7z M521.8,281.7c0-1.3-1.1-2.5-2.7-2.5c-0.7,0-1.3,0.2-1.8,0.5l0,0.1c-0.6,0.9-0.9,1.3-0.9,2
					c0,1.3,1.1,2.5,2.7,2.5C520.7,284.3,521.8,283.1,521.8,281.7z"/>
				<path class="st6" d="M539.5,282.4h-7.3v-2.8h7.3V282.4z"/>
			</g>
		</g>
		<text transform="matrix(0 1 -1 0 208.3291 115.3979)"><tspan x="0" y="0" class="st6 st7 st8">No.</tspan><tspan x="30.9" y="0" class="st9 st7 st8"> </tspan><tspan x="36.6" y="0" class="st10 st7 st8 st11">1236_778</tspan></text>
		<text transform="matrix(0 1 -1 0 276.8779 112.8025)" class="st3 st7 st12 st13">TICKET</text>
	</g>
	<g>
		<g>
			<path class="st14" d="M1227.2,609.8c0-3.9,3.2-7.1,7.1-7.1v-5.8c-3.9,0-7.1-3.2-7.1-7.1s3.2-7.1,7.1-7.1v-5.8
				c-3.9,0-7.1-3.2-7.1-7.1c0-3.9,3.2-7.1,7.1-7.1v-5.8c-3.9,0-7.1-3.2-7.1-7.1c0-3.9,3.2-7.1,7.1-7.1V537c-3.9,0-7.1-3.2-7.1-7.1
				c0-3.9,3.2-7.1,7.1-7.1V517c-3.9,0-7.1-3.2-7.1-7.1c0-3.9,3.2-7.1,7.1-7.1v-5.8c-3.9,0-7.1-3.2-7.1-7.1c0-3.9,3.2-7.1,7.1-7.1
				v-5.8c-3.9,0-7.1-3.2-7.1-7.1c0-3.9,3.2-7.1,7.1-7.1v-5.8c-3.9,0-7.1-3.2-7.1-7.1c0-3.9,3.2-7.1,7.1-7.1v-5.8
				c-3.9,0-7.1-3.2-7.1-7.1c0-3.9,3.2-7.1,7.1-7.1v-5.8c-3.9,0-7.1-3.2-7.1-7.1c0-3.9,3.2-7.1,7.1-7.1v-5.8c-3.9,0-7.1-3.2-7.1-7.1
				c0-3.9,3.2-7.1,7.1-7.1v-5.8c-3.9,0-7.1-3.2-7.1-7.1c0-3.9,3.2-7.1,7.1-7.1v-5.5H716.9v5.5c3.6,0.4,6.4,3.4,6.4,7
				c0,3.7-2.8,6.7-6.4,7v5.9c3.6,0.4,6.4,3.4,6.4,7c0,3.7-2.8,6.7-6.4,7v5.9c3.6,0.4,6.4,3.4,6.4,7c0,3.7-2.8,6.7-6.4,7v5.9
				c3.6,0.4,6.4,3.4,6.4,7c0,3.7-2.8,6.7-6.4,7v5.9c3.6,0.4,6.4,3.4,6.4,7c0,3.7-2.8,6.7-6.4,7v5.9c3.6,0.4,6.4,3.4,6.4,7
				c0,3.7-2.8,6.7-6.4,7v5.9c3.6,0.4,6.4,3.4,6.4,7c0,3.7-2.8,6.7-6.4,7v5.9c3.6,0.4,6.4,3.4,6.4,7c0,3.7-2.8,6.7-6.4,7v5.9
				c3.6,0.4,6.4,3.4,6.4,7c0,3.7-2.8,6.7-6.4,7v5.9c3.6,0.4,6.4,3.4,6.4,7c0,3.7-2.8,6.7-6.4,7v5.9c3.6,0.4,6.4,3.4,6.4,7
				c0,3.7-2.8,6.7-6.4,7v5.9c3.6,0.4,6.4,3.4,6.4,7c0,3.7-2.8,6.7-6.4,7v5.9c3.6,0.4,6.4,3.4,6.4,7c0,3.7-2.8,6.7-6.4,7v5.5h517.4
				v-5.5C1230.4,616.8,1227.2,613.7,1227.2,609.8z"/>
		</g>
		<rect x="736.6" y="370.9" class="st15" width="477.9" height="238.3"/>
		<line class="st15" x1="797.8" y1="370.9" x2="797.8" y2="609.1"/>
		<line class="st15" x1="797.8" y1="433.4" x2="1214.5" y2="433.4"/>
		<text transform="matrix(0 1 -1 0 759.7178 417.1264)"><tspan x="0" y="0" class="st3 st7 st8">No. </tspan><tspan x="36.6" y="0" class="st3 st7 st8 st11">1236_778</tspan></text>
		<g>
			<g>
				<path class="st3" d="M943.3,470c4,0.7,6.4,2.5,6.4,6c0,3.8-2.8,6.1-7.5,6.1c-3.1,0-5.2-1-6.6-2.5v2.1h-3.4V475h3.4
					c1.7,2.4,3.2,3.8,6.5,3.8c2.3,0,3.9-1,3.9-2.6c0-1.2-0.8-2.4-3.2-2.8l-4-0.7c-4.1-0.6-6.1-2.8-6.1-5.9c0-3.7,2.9-6.2,7.6-6.2
					c2.6,0,4.7,0.7,6,2.2v-1.8h3.1v6.1h-3.3c-1-1.8-2.6-3.4-5.7-3.4c-2.5,0-3.9,1.1-3.9,2.9c0,1.7,1.2,2.4,3.6,2.8L943.3,470z"/>
				<path class="st3" d="M972.3,464.3v8.2c0,5.9-3.6,9.6-9.1,9.6c-5.4,0-9.1-3.7-9.1-9.6v-8.2h-2.6v-3.2h8.8v3.2h-2.6v8.2
					c0,3.7,2.2,6.2,5.5,6.2c3.3,0,5.5-2.5,5.5-6.2v-8.2h-2.6v-3.2h8.8v3.2H972.3z"/>
				<path class="st3" d="M999.9,478.5h2.6v3.2h-8.8v-3.2h2.6v-9.3l-5.8,9.2h-2.2l-5.9-9.3l0,9.4h2.6v3.2h-8.8v-3.2h2.6v-14.1h-2.5
					v-3.2h4.9l8.2,12.7l8.2-12.7h4.9v3.2h-2.6V478.5z"/>
				<path class="st3" d="M1029,478.5h2.6v3.2h-8.8v-3.2h2.6v-9.3l-5.8,9.2h-2.2l-5.9-9.3l0,9.4h2.6v3.2h-8.8v-3.2h2.6v-14.1h-2.5
					v-3.2h4.9l8.2,12.7l8.2-12.7h4.9v3.2h-2.6V478.5z"/>
				<path class="st3" d="M1051.9,468h-3.3v-3.5h-8v5.4h6.9v3.4h-6.9v5.1h8v-3.5h3.3v6.9h-17.5v-3.2h2.6v-14.1h-2.6v-3.2h17.5V468z"
					/>
				<path class="st3" d="M1075.8,481.7h-7.7v-3.1l-3.2-4h-3.9v3.8h2.7v3.2h-8.9v-3.2h2.6v-14.1h-2.6v-3.2h10.7
					c4.7,0,7.8,2.8,7.8,6.9c0,2.9-1.6,5.1-4.4,6.1l3.6,4.3h3.4V481.7z M1065.3,471.6c2.5,0,4.2-1.4,4.2-3.5c0-2.1-1.7-3.5-4.2-3.5
					h-4.5v7.1H1065.3z"/>
			</g>
			<g>
				<g>
					<path class="st3" d="M988.6,587.7c-0.9,0.1-2.4-1.2-2.4-1.9c0-0.5,0.3-0.2,0.6-0.3c0.7-0.1,1-0.9,1-2.8c0-2.3,0-3.5,0-5.8
						c-0.8,0.1-1.1,0.1-1.9,0.2c-0.8,0.1-1.3-0.9-1.3-1.7c0-0.4,0.2-0.8,0.6-0.8c1.1-0.1,1.6-0.2,2.7-0.3c0-4.8,0-7.2,0-12
						c-5.2,0.9-8.7,3.5-8.7,9.3c0,2.5,1.5,4.6,2.1,4.6c0.2,0,0.6,0.1,0.6,0.4c0,1-0.9,2.3-1.8,2.5c-0.2,0-0.4,0-0.5-0.1
						c-1-0.6-3.2-3-3.2-6.9c0-7.1,4.5-12,13.4-12.9c2-0.2,7.6-0.5,8.4-0.5c0.7,0,0.9-0.3,1-0.3c0.3,0,0.5,0.6,0.5,1.2
						c0,0.9-0.6,2-1.7,2c-0.7,0-4.8,0.2-7.1,0.4c0,4.8,0,7.2,0,12c1.8-0.2,2.8-0.2,4.6-0.4c1.1-0.9,0.5,2.5-0.3,2.6
						c-1.7,0.1-2.6,0.2-4.3,0.3c0,2.5,0,3.8,0,6.3C990.7,586.2,989.9,587.6,988.6,587.7z"/>
					<path class="st3" d="M1010.5,579.3c0.2-0.8,0.5-1.1,0.9-1.1c0.6,0,1.3,0.9,1.3,1.6c0,0,0,0.1,0,0.3c-0.6,2.4-2.1,5.6-5.3,5.5
						c-1.3,0-2.7-1.6-2.9-1.6c-0.2,0-1.8,1.5-3.2,1.5c-2.9,0-4.4-2.3-4.4-5.4c0-6.2,4.3-10.1,8.8-10c1,0,1.7,0.6,1.7,1.6
						c0,0.6-0.1,0.8-0.5,0.8c-0.3,0-0.7-0.1-1.1-0.1c-2.8-0.1-6.1,2.4-6.1,7.7c0,1.9,0.8,3,2.1,3c1,0,1.7-0.9,2.1-1.9
						c0-2.3,0-3.4,0-5.7c0-0.7-0.2-0.9-0.2-1.2c0-0.4,0.4-0.6,1-0.6c1.2,0,2,0.8,2,1.7c0,2.4,0,3.6,0,6.1c0,0.8,0.4,1.7,1.3,1.7
						C1009.5,583.2,1010.2,580.9,1010.5,579.3z"/>
					<path class="st3" d="M1010.4,564.7c0-1.3,1-2.2,2.2-2.1c1.3,0.1,2.3,1.1,2.3,2.4c0,1.2-1,2.2-2.3,2.1
						C1011.4,567,1010.4,565.9,1010.4,564.7z M1013.5,581.7c0,0.3,0,1.7,1,1.8c1.5,0.1,2.1-2.2,2.5-3.7c0.4-2.2,2.4-0.2,2.1,0.9
						c-0.6,2.3-2.1,5.5-5.3,5.2c-2-0.2-3.1-1.8-3.1-3.7c0-3.9,0-5.9,0-9.8c0-0.7-0.1-0.9-0.1-1.2c0-0.4,0.4-0.6,1-0.6
						c1.2,0.1,2,0.9,2,1.8C1013.5,576.1,1013.5,578,1013.5,581.7z"/>
					<path class="st3" d="M1021.3,582.5c0-2.4,0.7-4.9,1.8-7.9c-1.1-0.2-1.7-0.2-2.8-0.4c-0.2,0-0.2,0-0.4-0.1
						c0,1.4-0.3,4.6-0.9,6.7c-0.5,1.5-2.4,0-2.1-1.3c0.4-1.4,1-5.5,0.6-6.4c-0.3-0.5-1.6-1.5-1.6-2.5c0-1,0.9-1.6,1.8-1.5
						c0.9,0.1,1.8,1.7,2.3,2.2c0.4,0.4,1.6,0.4,1.9,0.4c0.8,0.1,1.1,0.2,1.9,0.3c0.4,0.1,1.8,1.6,1.8,2.3c0,0.4-1.6,4.5-1.6,8.2
						c0,1,0.5,2.1,1.5,2.2c1.7,0.3,2.3-2,2.6-3.5c0.1-0.7,0.5-1,0.9-0.9c0.6,0.1,1.3,1.1,1.3,1.8c0,0.1,0,0.2,0,0.3
						c-0.3,2-2.1,5.3-5.2,4.8C1023.4,587,1021.3,585.7,1021.3,582.5z"/>
				</g>
			</g>
			<g>
				<g>
					<path class="st3" d="M892.5,519.1c-0.9,12.3-12.5,18.6-23.8,15.6c-13.9-3.7-24.6-16.6-25-31.1c-0.3-13.1,11.4-21.3,23.7-18.1
						c5.5,1.4,9.7,3.9,12.7,7.3c0-1.3,0-2,0-3.4c4.9,1.1,7.4,1.6,12.3,2.6c0,7.9,0,11.8,0,19.7c-5-1-7.6-1.5-12.6-2.6
						c-1.1-5.6-5.5-10.1-11.2-11.5c-7.1-1.7-12,2.4-12,9.5c0,7.1,4.9,13.8,12,15.6c5.8,1.4,9.9-1.3,11-6.4
						C884.7,517.6,887.3,518.1,892.5,519.1z"/>
					<path class="st3" d="M947.2,523.6c0.1,13.7-11.7,23.4-25.1,21.4c-13.9-2.1-24.8-14.4-25-28.6c-0.2-13.7,12-22.3,25-20.3
						C935.7,498.3,947.1,509.4,947.2,523.6z M934.2,522.2c0-6.7-5-13.1-12.1-14.1c-7-1-12,3.9-12,10.7c0,6.7,5,13.3,12,14.3
						C929.2,534.1,934.2,528.9,934.2,522.2z"/>
					<path class="st3" d="M998.2,513.4c0,5.7,0,8.5,0,14.2c0.4,13.2-9.1,23.3-22.4,22.6c-13.4-0.7-22.7-11.4-22.3-24.8
						c0-5.7,0-8.5,0-14.2c-1.9-0.2-2.9-0.3-4.8-0.4c0-4.2,0-6.2,0-10.4c9.1,0.9,13.6,1.2,22.7,1.7c0,4.2,0,6.2,0,10.4
						c-1.9-0.1-2.9-0.2-4.9-0.3c0,5.8,0,8.7,0,14.5c0,6.7,3.6,11.3,9.4,11.5c5.8,0.3,9.4-3.9,9.4-10.6c0-5.8,0-8.7,0-14.5
						c-1.9-0.1-2.9-0.1-4.9-0.2c0-4.2,0-6.2,0-10.4c9.1,0.4,13.6,0.5,22.7,0.5c0,4.2,0,6.2,0,10.4
						C1001.1,513.4,1000.1,513.4,998.2,513.4z"/>
					<path class="st3" d="M1054.5,511.1c0,12.1,0,24.3,0,36.4c-4,0.4-5.9,0.5-9.9,0.8c-7.1-7.7-14.1-15.4-21.2-23.2
						c0,5.6,0,8.4,0,14c1.8-0.1,2.7-0.1,4.5-0.2c0,4.2,0,6.2,0,10.4c-8.9,0.4-13.3,0.5-22.2,0.5c0-4.2,0-6.2,0-10.4
						c1.9,0,2.9,0,4.9,0c0-10.4,0-15.6,0-26c-1.9,0-2.9,0-4.9,0c0-4.2,0-6.2,0-10.4c5.8,0,8.7-0.1,14.4-0.2
						c7.1,8.1,14.3,16.1,21.5,24.1c0-5.9,0-8.9,0-14.8c-1.8,0.1-2.7,0.2-4.5,0.3c0-4.2,0-6.2,0-10.4c8.9-0.5,13.3-0.9,22.2-1.7
						c0,4.2,0,6.2,0,10.4C1057.4,510.8,1056.4,510.9,1054.5,511.1z"/>
					<path class="st3" d="M1108.2,511.1c-4.2,0.8-6.3,1.1-10.4,1.8c0-2.6,0-4,0-6.6c-2.4,0.4-3.6,0.6-6.1,1c0,10.1,0,15.1,0,25.2
						c2.9-0.5,4.3-0.7,7.2-1.2c0,4.2,0,6.2,0,10.4c-9,1.5-18.1,2.9-27.2,3.9c0-4.2,0-6.2,0-10.4c2.9-0.4,4.3-0.5,7.2-0.9
						c0-10.1,0-15.1,0-25.2c-2.4,0.3-3.6,0.5-6,0.8c0,2.6,0,4,0,6.6c-4.2,0.5-6.3,0.8-10.5,1.2c0-7.1,0-10.7,0-17.8
						c15.3-1.6,30.6-3.8,45.8-6.6C1108.2,500.4,1108.2,504,1108.2,511.1z"/>
					<path class="st3" d="M1143.4,522c2.4-0.6,3.5-0.9,5.9-1.5c0,4.2,0,6.2,0,10.4c-9.9,2.6-14.8,3.8-24.8,5.9c0-4.2,0-6.2,0-10.4
						c2.4-0.5,3.6-0.8,6-1.3c0-1.2,0-1.8,0-3c-5.2-8-7.8-12-13-20.2c-2.7,0.6-4.1,0.8-6.8,1.3c0-4.2,0-6.2,0-10.4
						c9.5-1.8,14.2-2.8,23.6-5c0,4.2,0,6.2,0,10.4c-1,0.2-1.6,0.4-2.6,0.6c2.1,3.2,3.1,4.8,5.2,7.9c2.1-4.2,3.1-6.2,5.2-10.4
						c-1,0.3-1.5,0.4-2.5,0.6c0-4.2,0-6.2,0-10.4c9.4-2.3,14-3.5,23.3-6.3c0,4.2,0,6.2,0,10.4c-2.7,0.8-4,1.2-6.7,1.9
						c-4.2,8.8-8.5,17.6-12.8,26.4C1143.4,520.1,1143.4,520.8,1143.4,522z"/>
				</g>
			</g>
		</g>
		<text transform="matrix(1 0 0 1 915.6289 416.6655)" class="st3 st7 st12 st16">TICKET</text>
	</g>
	<g>
		<g>
			<path class="st17" d="M682.2,583c-3.8,0-6.9-3.1-6.9-6.9s3.1-6.9,6.9-6.9c0.3,0,0.7,0.1,1,0.1v-5.5c-0.3,0-0.6,0.1-1,0.1
				c-3.8,0-6.9-3.1-6.9-6.9c0-3.8,3.1-6.9,6.9-6.9c0.3,0,0.7,0.1,1,0.1v-5.5c-0.3,0-0.6,0.1-1,0.1c-3.8,0-6.9-3.1-6.9-6.9
				c0-3.8,3.1-6.9,6.9-6.9c0.3,0,0.7,0.1,1,0.1v-5.5c-0.3,0-0.6,0.1-1,0.1c-3.8,0-6.9-3.1-6.9-6.9c0-3.8,3.1-6.9,6.9-6.9
				c0.3,0,0.7,0.1,1,0.1v-5.5c-0.3,0-0.6,0.1-1,0.1c-3.8,0-6.9-3.1-6.9-6.9c0-3.8,3.1-6.9,6.9-6.9c0.3,0,0.7,0.1,1,0.1v-5.5
				c-0.3,0-0.6,0.1-1,0.1c-3.8,0-6.9-3.1-6.9-6.9c0-3.8,3.1-6.9,6.9-6.9c0.3,0,0.7,0.1,1,0.1v-5.5c-0.3,0-0.6,0.1-1,0.1
				c-3.8,0-6.9-3.1-6.9-6.9c0-3.8,3.1-6.9,6.9-6.9c0.3,0,0.7,0.1,1,0.1V449c-0.3,0-0.6,0.1-1,0.1c-3.8,0-6.9-3.1-6.9-6.9
				c0-3.8,3.1-6.9,6.9-6.9c0.3,0,0.7,0.1,1,0.1v-5.5c-0.3,0-0.6,0.1-1,0.1c-3.8,0-6.9-3.1-6.9-6.9c0-3.8,3.1-6.9,6.9-6.9
				c0.3,0,0.7,0.1,1,0.1v-5.5c-0.3,0-0.6,0.1-1,0.1c-3.8,0-6.9-3.1-6.9-6.9c0-3.8,3.1-6.9,6.9-6.9c0.3,0,0.7,0.1,1,0.1v-6.5
				c-18.2,0-32.9-14.7-32.9-32.9H198.7c0,18.2-14.7,32.9-32.9,32.9v6.5c0.4-0.1,0.9-0.1,1.3-0.1c3.8,0,6.9,3.1,6.9,6.9
				c0,3.8-3.1,6.9-6.9,6.9c-0.5,0-0.9-0.1-1.3-0.1v5.6c0.4-0.1,0.9-0.1,1.3-0.1c3.8,0,6.9,3.1,6.9,6.9c0,3.8-3.1,6.9-6.9,6.9
				c-0.5,0-0.9,0-1.3-0.1v5.6c0.4-0.1,0.9-0.1,1.3-0.1c3.8,0,6.9,3.1,6.9,6.9c0,3.8-3.1,6.9-6.9,6.9c-0.5,0-0.9,0-1.3-0.1v5.6
				c0.4-0.1,0.9-0.1,1.3-0.1c3.8,0,6.9,3.1,6.9,6.9c0,3.8-3.1,6.9-6.9,6.9c-0.5,0-0.9,0-1.3-0.1v5.6c0.4-0.1,0.9-0.1,1.3-0.1
				c3.8,0,6.9,3.1,6.9,6.9c0,3.8-3.1,6.9-6.9,6.9c-0.5,0-0.9,0-1.3-0.1v5.6c0.4-0.1,0.9-0.1,1.3-0.1c3.8,0,6.9,3.1,6.9,6.9
				c0,3.8-3.1,6.9-6.9,6.9c-0.5,0-0.9,0-1.3-0.1v5.6c0.4-0.1,0.9-0.1,1.3-0.1c3.8,0,6.9,3.1,6.9,6.9c0,3.8-3.1,6.9-6.9,6.9
				c-0.5,0-0.9,0-1.3-0.1v5.6c0.4-0.1,0.9-0.1,1.3-0.1c3.8,0,6.9,3.1,6.9,6.9c0,3.8-3.1,6.9-6.9,6.9c-0.5,0-0.9,0-1.3-0.1v5.6
				c0.4-0.1,0.9-0.1,1.3-0.1c3.8,0,6.9,3.1,6.9,6.9c0,3.8-3.1,6.9-6.9,6.9c-0.5,0-0.9-0.1-1.3-0.1v5.6c0.4-0.1,0.9-0.1,1.3-0.1
				c3.8,0,6.9,3.1,6.9,6.9s-3.1,6.9-6.9,6.9c-0.5,0-0.9-0.1-1.3-0.1v6.5c18.2,0,32.9,14.7,32.9,32.9h451.6
				c0-18.2,14.7-32.9,32.9-32.9v-6.5C682.8,583,682.5,583,682.2,583z"/>
		</g>
		<path class="st18" d="M663.4,399.3c-11.7-5.6-20.8-15.9-24.5-28.5H208.1c-3.7,12.3-12.5,22.5-23.9,28.1v182
			c11.4,5.6,20.2,15.8,23.9,28.1h430.8c3.8-12.6,12.8-22.9,24.5-28.5V399.3z"/>
		<line class="st18" x1="246.7" y1="371.1" x2="246.7" y2="609.1"/>
		<line class="st18" x1="603.6" y1="370.9" x2="603.6" y2="609.1"/>
		<text transform="matrix(0 -1 1 0 639.8174 562.8719)"><tspan x="0" y="0" class="st19 st7 st8">No.</tspan><tspan x="30.9" y="0" class="st9 st7 st8"> </tspan><tspan x="36.6" y="0" class="st10 st7 st8 st11">1236_778</tspan></text>
		<text transform="matrix(0 1 -1 0 205.5312 414.5315)" class="st19 st7 st12 st13">TICKET</text>
		<g>
			<g>
				<g>
					<g>
						<rect x="425.2" y="392.4" class="st19" width="0.5" height="7"/>
					</g>
					<g>
						<polygon class="st19" points="425.2,394.6 425.2,389.2 433.1,391.9 						"/>
					</g>
				</g>
				<g>
					<path class="st19" d="M391.6,467l12.8-6.2c0,0,12.7-21.7,21-61.9c-4.2,17.2-40,61.9-40,61.9L391.6,467z"/>
				</g>
				<g>
					<path class="st5" d="M360.8,460.8l7.1,6.2l17.5-6.2c0,0,35.8-44.7,40-61.9C412.8,430.3,360.8,460.8,360.8,460.8z"/>
				</g>
				<g>
					<path class="st19" d="M339.8,460.8l10.6,6.2l10.4-6.2c0,0,52-30.4,64.6-61.9C390.1,446.5,339.8,460.8,339.8,460.8z"/>
				</g>
				<g>
					<path class="st5" d="M425.4,398.9c-8.3,40.2-21,61.9-21,61.9l11.7,6.2l9.3-6.2l9.3,6.2l11.7-6.2
						C446.4,460.8,433.7,439,425.4,398.9z"/>
				</g>
				<g>
					<path class="st19" d="M459.2,467l-12.8-6.2c0,0-12.7-21.7-21-61.9c4.2,17.2,40,61.9,40,61.9L459.2,467z"/>
				</g>
				<g>
					<path class="st5" d="M490,460.8l-7.1,6.2l-17.5-6.2c0,0-35.8-44.8-40-61.9C438,430.3,490,460.8,490,460.8z"/>
				</g>
				<g>
					<path class="st19" d="M511,460.8l-10.6,6.2l-10.4-6.2c0,0-52-30.4-64.6-61.9C460.7,446.5,511,460.8,511,460.8z"/>
				</g>
				<g>
					<path class="st19" d="M416.1,467l9.3-6.2l9.3,6.2c0,0-8.3-63.5-9.3-68.2C424.4,403.5,416.1,467,416.1,467z"/>
				</g>
				<g>
					<path class="st19" d="M339.8,460.8v6.9c0,5.8,4.7,10.5,10.5,10.5c5.8,0,10.5-4.7,10.5-10.5v-6.9H339.8z"/>
				</g>
				<g>
					<path class="st19" d="M385.4,460.8v6.9c0,5.8,4.3,10.5,9.5,10.5c5.2,0,9.5-4.7,9.5-10.5v-6.9H385.4z"/>
				</g>
				<g>
					<path class="st19" d="M417,460.8v6.9c0,5.8,3.8,10.5,8.4,10.5c4.6,0,8.4-4.7,8.4-10.5v-6.9H417z"/>
				</g>
				<g>
					<path class="st5" d="M360.8,460.8v6.9c0,5.8,5.5,10.5,12.3,10.5c6.8,0,12.3-4.7,12.3-10.5v-6.9H360.8z"/>
				</g>
				<g>
					<path class="st5" d="M404.4,460.8v6.9c0,5.8,2.8,7.5,6.3,7.5c3.5,0,6.3-1.7,6.3-7.5v-6.9H404.4z"/>
				</g>
				<g>
					<path class="st19" d="M511.1,460.8v6.9c0,5.8-4.7,10.5-10.5,10.5c-5.8,0-10.5-4.7-10.5-10.5v-6.9H511.1z"/>
				</g>
				<g>
					<path class="st19" d="M465.4,460.8v6.9c0,5.8-4.3,10.5-9.5,10.5c-5.2,0-9.5-4.7-9.5-10.5v-6.9H465.4z"/>
				</g>
				<g>
					<path class="st5" d="M490,460.8v6.9c0,5.8-5.5,10.5-12.3,10.5c-6.8,0-12.3-4.7-12.3-10.5v-6.9H490z"/>
				</g>
				<g>
					<path class="st5" d="M446.4,460.8v6.9c0,5.8-2.8,7.5-6.3,7.5c-3.5,0-6.3-1.7-6.3-7.5v-6.9H446.4z"/>
				</g>
			</g>
			<g>
				<g>
					<path class="st19" d="M470.2,529.1c0,0-1.8-8.9-14.7,2.4c-12.9,11.2-23.3,3.7-23.3,3.7l6.9,11.2l-4.4,5.1
						c0,0,12.2,7.3,23.5-3.1c11.4-10.4,16.4-10.3,16.4-10.3L470.2,529.1z"/>
				</g>
				<g>
					<path class="st19" d="M380.6,529.1c0,0,1.8-8.9,14.7,2.4c12.9,11.2,23.3,3.7,23.3,3.7l-6.9,11.2l4.4,5.1c0,0-12.2,7.3-23.5-3.1
						c-11.4-10.4-16.4-10.3-16.4-10.3L380.6,529.1z"/>
				</g>
				<g>
					<path class="st20" d="M374,552.6c4.4,7.7,13.1,12.5,20.5,15.5c9.8,4,20.2,6,31,6c10.8,0,21.2-2,31-6c7.4-3,16.1-7.8,20.5-15.5
						c1.9-3.3,1.2-7.3-0.4-10.7c-1.6-3.4-6.2-12.9-6.2-12.8c-0.3,8.7-10.2,14.7-17,18.2c-8.5,4.4-18.2,6.6-27.8,6.6
						c-9.6,0-19.2-2.1-27.8-6.6c-6.8-3.5-16.8-9.6-17-18.2c0,0-4.6,9.4-6.2,12.8C372.8,545.3,372.1,549.3,374,552.6"/>
				</g>
				<g>
					<g>
						<path class="st5" d="M381.4,545.7c1,1.3,1.4,2.4,0.6,3.2c-0.8,0.9-2.2,0.7-3.7-0.7c-1-0.9-1.4-1.8-1.4-2.6
							c-0.2,0.2-0.3,0.3-0.5,0.5c-0.4-0.4-0.6-0.6-1-1.1c0.7-0.6,1-0.9,1.6-1.5c0.4,0.4,0.6,0.6,1,1c-0.1,1.1,0,1.9,1,2.8
							c0.7,0.7,1.4,0.9,1.8,0.5c0.3-0.3,0.3-0.8-0.4-1.6c-0.4-0.5-0.6-0.8-1-1.3c-1.1-1.4-1.1-2.4-0.3-3.1c0.9-0.8,2.3-0.5,3.6,0.8
							c0.7,0.7,1.1,1.4,1.2,2.2c0.2-0.2,0.2-0.3,0.4-0.4c0.4,0.3,0.5,0.5,0.9,0.8c-0.5,0.6-0.8,0.9-1.3,1.5c-0.4-0.4-0.6-0.5-1-0.9
							c0.1-0.7,0-1.5-0.9-2.4c-0.7-0.7-1.3-0.9-1.8-0.4c-0.4,0.4-0.2,0.9,0.4,1.7C380.9,545.1,381.1,545.3,381.4,545.7z"/>
						<path class="st5" d="M389.9,551.8c-0.4-0.3-0.6-0.4-1-0.7c0.3-0.4,0.4-0.6,0.7-0.9c-1-0.7-1.5-1.1-2.5-1.9
							c-0.4,0.6-0.7,0.8-1.1,1.4c0.9,0.7,1.3,1,2.2,1.7c-0.3,0.4-0.4,0.5-0.6,0.9c-0.9-0.7-1.4-1-2.2-1.7c-0.4,0.5-0.6,0.8-1,1.3
							c1,0.8,1.6,1.2,2.7,2c0.3-0.4,0.4-0.6,0.7-0.9c0.4,0.3,0.6,0.5,1.1,0.8c-0.5,0.8-0.8,1.1-1.3,1.9c-2.4-1.6-3.6-2.5-5.9-4.5
							c0.3-0.3,0.4-0.5,0.7-0.8c0.3,0.3,0.5,0.4,0.8,0.7c1.2-1.4,1.8-2.2,3-3.6c-0.3-0.3-0.5-0.4-0.8-0.7c0.3-0.3,0.4-0.5,0.7-0.8
							c2,1.7,3.1,2.5,5.3,4C390.7,550.7,390.5,551.1,389.9,551.8z"/>
						<path class="st5" d="M395.4,552.5c1.6,0.9,2.2,2.3,1.6,3.5c-0.7,1.3-2.3,1.6-4.2,0.5c-0.5-0.3-0.7-0.4-1.2-0.7
							c-0.2,0.3-0.3,0.5-0.5,0.8c0.4,0.3,0.7,0.4,1.1,0.7c-0.2,0.4-0.3,0.6-0.5,0.9c-1.4-0.8-2-1.2-3.3-2.1c0.2-0.4,0.3-0.5,0.6-0.9
							c0.4,0.2,0.5,0.3,0.9,0.6c1-1.6,1.5-2.4,2.5-3.9c-0.3-0.2-0.5-0.3-0.8-0.5c0.2-0.4,0.3-0.5,0.6-0.9
							C393.4,551.4,394,551.8,395.4,552.5z M393.5,555.7c1,0.6,1.9,0.4,2.3-0.3c0.3-0.7,0-1.4-1-1.9c-0.5-0.3-0.8-0.4-1.3-0.8
							c-0.5,0.9-0.8,1.3-1.3,2.2C392.7,555.2,393,555.4,393.5,555.7z"/>
						<path class="st5" d="M404.3,559.1c-0.5-0.2-0.7-0.2-1.2-0.4c0.2-0.4,0.2-0.7,0.4-1.1c-0.6-0.2-0.9-0.4-1.5-0.6
							c-0.7,1.7-1,2.6-1.7,4.3c0.5,0.2,0.8,0.3,1.3,0.5c-0.2,0.4-0.2,0.6-0.4,1c-1.6-0.6-2.4-0.9-4-1.7c0.2-0.4,0.3-0.6,0.4-1
							c0.5,0.2,0.8,0.3,1.3,0.6c0.7-1.7,1.1-2.5,1.8-4.2c-0.6-0.3-0.9-0.4-1.5-0.7c-0.2,0.4-0.3,0.6-0.5,1.1
							c-0.5-0.2-0.7-0.3-1.1-0.5c0.4-0.8,0.6-1.2,1-2c2.5,1.2,3.8,1.8,6.5,2.7C404.7,557.8,404.6,558.2,404.3,559.1z"/>
						<path class="st5" d="M411.5,561.1c-0.5-0.1-0.7-0.2-1.2-0.3c0.1-0.5,0.2-0.7,0.3-1.1c-1.2-0.3-1.7-0.4-2.9-0.8
							c-0.2,0.7-0.3,1-0.5,1.7c1,0.3,1.5,0.4,2.5,0.7c-0.1,0.4-0.2,0.6-0.3,1.1c-1-0.3-1.6-0.4-2.6-0.7c-0.2,0.6-0.3,1-0.5,1.6
							c1.2,0.4,1.8,0.5,3.1,0.8c0.1-0.5,0.2-0.7,0.3-1.1c0.5,0.1,0.7,0.2,1.2,0.3c-0.2,0.9-0.3,1.3-0.5,2.2c-2.8-0.6-4.1-1-6.8-1.9
							c0.1-0.4,0.2-0.6,0.3-1c0.4,0.1,0.6,0.2,1,0.3c0.6-1.8,0.9-2.7,1.4-4.4c-0.4-0.1-0.6-0.2-0.9-0.3c0.1-0.4,0.2-0.6,0.3-1
							c2.4,0.8,3.7,1.2,6.1,1.7C411.8,559.8,411.7,560.3,411.5,561.1z"/>
						<path class="st5" d="M421.2,566c0.4,0,0.6,0,1,0.1c0,0.4,0,0.6-0.1,1.1c-1.4-0.1-2.1-0.1-3.5-0.3c0-0.4,0.1-0.6,0.1-1.1
							c0.4,0,0.6,0.1,1,0.1c0.1-1.2,0.2-1.8,0.3-3.1c-1,1.1-1.5,1.7-2.5,2.8c-0.3,0-0.5-0.1-0.9-0.1c-0.8-1.3-1.1-2-1.8-3.4
							c-0.2,1.2-0.3,1.8-0.5,3.1c0.4,0.1,0.6,0.1,1,0.2c-0.1,0.4-0.1,0.6-0.2,1c-1.4-0.2-2.1-0.3-3.5-0.6c0.1-0.4,0.1-0.6,0.2-1
							c0.4,0.1,0.6,0.1,1,0.2c0.4-1.8,0.5-2.7,0.9-4.6c-0.4-0.1-0.6-0.1-0.9-0.2c0.1-0.4,0.1-0.6,0.2-1c0.7,0.1,1,0.2,1.7,0.3
							c0.9,1.9,1.4,2.8,2.4,4.6c1.5-1.5,2.2-2.3,3.5-3.9c0.7,0.1,1.1,0.1,1.8,0.1c0,0.4,0,0.6-0.1,1.1c-0.4,0-0.6,0-1-0.1
							C421.3,563.2,421.3,564.1,421.2,566z"/>
						<path class="st5" d="M430.7,565.1c0.1,1.1-1,2-2.8,2c-1.9,0.1-2.8,0.1-4.6,0c0-0.4,0-0.6,0-1.1c0.4,0,0.6,0,1,0
							c0-1.9,0-2.8,0.1-4.7c-0.4,0-0.6,0-1,0c0-0.4,0-0.6,0-1.1c1.6,0.1,2.4,0,4,0c1.6-0.1,2.5,0.5,2.6,1.6c0.1,0.7-1,1.6-1,1.6
							C429.1,563.6,430.7,564.3,430.7,565.1z M425.8,563.3c0.7,0,1.1,0,1.8,0c1,0,1.4-0.4,1.3-1c0-0.5-0.5-0.8-1.4-0.8
							c-0.7,0-1,0-1.7,0C425.8,562.2,425.8,562.5,425.8,563.3z M427.8,566.1c1.1,0,1.5-0.5,1.5-1c0-0.5-0.5-0.8-1.4-0.8
							c-0.9,0-1.3,0-2.1,0c0,0.7,0,1.1,0,1.8C426.6,566.1,427,566.1,427.8,566.1z"/>
						<path class="st5" d="M437.6,561.5c-0.5,0.1-0.7,0.1-1.2,0.2c-0.1-0.5-0.1-0.7-0.2-1.1c-1.2,0.2-1.8,0.3-2.9,0.4
							c0.1,0.7,0.1,1.1,0.2,1.8c1-0.1,1.6-0.2,2.6-0.4c0.1,0.4,0.1,0.7,0.2,1.1c-1.1,0.2-1.6,0.3-2.6,0.4c0.1,0.7,0.1,1,0.2,1.7
							c1.3-0.2,1.9-0.3,3.1-0.5c-0.1-0.5-0.1-0.7-0.2-1.1c0.5-0.1,0.8-0.1,1.3-0.2c0.2,0.9,0.3,1.3,0.4,2.2c-2.8,0.5-4.2,0.7-7,1
							c0-0.4-0.1-0.6-0.1-1.1c0.4,0,0.6-0.1,1-0.1c-0.2-1.9-0.3-2.8-0.5-4.6c-0.4,0-0.6,0.1-1,0.1c0-0.4-0.1-0.6-0.1-1.1
							c2.5-0.2,3.8-0.4,6.3-0.9C437.4,560.2,437.4,560.6,437.6,561.5z"/>
						<path class="st5" d="M447.8,563.4c-1.2,0.4-1.8,0.6-3,1c-0.1-0.4-0.2-0.6-0.3-1c-0.6-0.4-1-0.5-1.6-0.9
							c-0.6,0.2-0.9,0.2-1.5,0.4c0.1,0.5,0.2,0.7,0.3,1.2c0.4-0.1,0.6-0.2,1-0.3c0.1,0.4,0.2,0.6,0.3,1c-1.4,0.4-2.1,0.5-3.5,0.8
							c-0.1-0.4-0.1-0.6-0.2-1c0.4-0.1,0.6-0.1,1-0.2c-0.4-1.8-0.6-2.7-1-4.5c-0.4,0.1-0.6,0.1-0.9,0.2c-0.1-0.4-0.1-0.6-0.2-1
							c1.5-0.3,2.3-0.5,3.8-0.9c1.6-0.5,3,0,3.4,1.3c0.3,0.9-0.1,1.8-1,2.4c0.7,0.4,1.1,0.6,1.8,0.9c0.5-0.2,0.8-0.3,1.3-0.4
							C447.6,562.8,447.7,563,447.8,563.4z M442.9,561.4c0.9-0.3,1.4-0.9,1.2-1.6c-0.2-0.7-0.9-0.9-1.8-0.7c-0.6,0.2-1,0.3-1.6,0.4
							c0.2,0.9,0.3,1.4,0.6,2.3C441.9,561.7,442.2,561.6,442.9,561.4z"/>
						<path class="st5" d="M457.1,559.3c-2.2,1.1-3.3,1.7-5.5,2.6c-0.1-0.2-0.1-0.3-0.2-0.6c0.7-1.2,1-1.9,1.6-3.1
							c0.5-1.1,0.7-1.8,0.4-2.3c-0.3-0.5-0.9-0.8-1.7-0.4c-0.7,0.3-1.1,1-0.8,1.6c-0.5,0.2-0.7,0.3-1.2,0.5c-0.5-1.2,0.2-2.4,1.5-3
							c1.4-0.7,2.7-0.3,3.3,0.7c0.4,0.8,0.3,1.6-0.3,3c-0.3,0.7-0.5,1-0.8,1.7c1.3-0.6,1.9-0.9,3.2-1.6
							C456.8,558.8,456.9,559,457.1,559.3z"/>
						<path class="st5" d="M462.5,552c1.2,1.7,0.9,3.7-1.2,5c-2,1.3-4,0.6-5-1.1c-1-1.8-0.6-3.7,1.3-4.8
							C459.4,549.9,461.3,550.4,462.5,552z M461.3,552.8c-0.8-1.1-2-1.6-3.1-0.9c-1.2,0.7-1.3,2-0.6,3.2c0.7,1.2,1.9,1.7,3.2,0.9
							C462,555.3,462.1,554,461.3,552.8z"/>
						<path class="st5" d="M470,550.4c-1.8,1.6-2.7,2.3-4.7,3.8c-0.2-0.3-0.4-0.5-0.6-0.8c0.7-0.5,1.1-0.8,1.8-1.4
							c-1.1-1.4-1.6-2.1-2.7-3.5c-0.5,0.7-0.7,1-1.3,1.6c-0.2-0.3-0.4-0.5-0.6-0.8c0.6-0.9,0.9-1.3,1.5-2.2c0.2-0.2,0.4-0.3,0.6-0.5
							c1.5,1.8,2.2,2.6,3.6,4.4c0.7-0.5,1-0.8,1.6-1.4C469.6,549.9,469.8,550,470,550.4z"/>
						<path class="st5" d="M469.8,544.3c1.3-1.3,2.9-1.6,3.9-0.7c1,0.9,0.8,2.7-0.6,4.1c-1.4,1.4-3.2,1.5-4.1,0.6
							c-0.4-0.4-0.5-1-0.6-1.8c0-1.5,0-2.3-0.1-3.8c0.5-0.5,0.7-0.7,1.1-1.2C469.6,542.6,469.7,543.2,469.8,544.3
							C469.8,544.3,469.8,544.3,469.8,544.3z M472.8,544.7c-0.5-0.5-1.5-0.4-2.3,0.3c-0.4,0.3-0.6,0.7-0.7,1.1c0,0,0,0,0,0
							c0,0.6,0.1,0.9,0.3,1.2c0.5,0.5,1.5,0.5,2.3-0.3C473.3,546.2,473.3,545.2,472.8,544.7z"/>
					</g>
				</g>
			</g>
			<g>
				<g>
					<path class="st19" d="M306.8,502.2c-1.7,6.7-7.7,10.6-14.6,10c-7.9-0.8-14-7.3-13.1-15.3c0.9-8,7.9-13,15.4-12.3
						c3.4,0.3,6.1,1.6,8,3.6c0.1-0.9,0.1-1.4,0.2-2.3c2.1,0.2,3.2,0.3,5.3,0.5c-0.4,4.3-0.6,6.4-1,10.7c-2.1-0.2-3.2-0.3-5.3-0.5
						c-0.6-3.9-3.6-6.3-7.4-6.6c-4.7-0.5-8.7,2.5-9.3,7.5c-0.5,5,2.8,8.8,7.6,9.3c3.8,0.4,7-1.4,8.2-5.1
						C303.3,501.9,304.4,502,306.8,502.2z"/>
					<path class="st19" d="M338.6,502.1c-0.5,7.7-7.2,13.4-15,12.8c-7.9-0.6-13.6-7.3-13-14.9c0.7-7.7,7.3-13.2,15.1-12.6
						C333.4,487.9,339.1,494.5,338.6,502.1z M332.8,501.7c0.3-4.7-2.9-8.8-7.6-9.1c-4.7-0.4-8.5,3.2-8.9,7.9
						c-0.4,4.7,2.8,8.8,7.6,9.2C328.7,510,332.5,506.4,332.8,501.7z"/>
					<path class="st19" d="M367.4,495.3c-0.2,3.8-0.3,5.8-0.4,9.6c-0.3,7.9-5.4,12.4-12.8,12c-7.4-0.4-12-5.4-11.5-13.3
						c0.2-3.8,0.4-5.8,0.6-9.6c-1.2-0.1-1.8-0.1-3.1-0.2c0.1-1.9,0.2-2.9,0.3-4.9c4.7,0.3,7.1,0.4,11.8,0.7
						c-0.1,1.9-0.2,2.9-0.3,4.9c-1.2-0.1-1.8-0.1-3.1-0.2c-0.2,3.8-0.3,5.8-0.6,9.6c-0.3,4.4,2.1,7.5,6,7.7c3.9,0.2,6.7-2.6,6.9-7
						c0.2-3.9,0.3-5.8,0.5-9.6c-1.2-0.1-1.9-0.1-3.1-0.2c0.1-1.9,0.1-2.9,0.2-4.9c4.7,0.2,7.1,0.3,11.8,0.5
						c-0.1,1.9-0.1,2.9-0.2,4.9C369.3,495.4,368.6,495.3,367.4,495.3z"/>
					<path class="st19" d="M399.2,496.3c-0.2,8.7-0.3,13-0.4,21.7c-1.8,0-2.7-0.1-4.4-0.1c-5.6-6.6-8.3-9.9-13.7-16.6
						c-0.2,4.5-0.2,6.8-0.4,11.4c1.2,0,1.9,0.1,3.1,0.1c-0.1,2-0.1,2.9-0.2,4.9c-4.8-0.1-7.2-0.2-12-0.4c0.1-2,0.1-2.9,0.2-4.9
						c1.2,0,1.9,0.1,3.1,0.1c0.3-6.7,0.4-10.1,0.6-16.8c-1.2,0-1.8-0.1-3.1-0.1c0.1-1.9,0.1-2.9,0.2-4.9c2.8,0.1,4.1,0.2,6.9,0.3
						c5.6,7,8.4,10.5,14.1,17.4c0.1-4.9,0.2-7.3,0.3-12.1c-1.2,0-1.8,0-3-0.1c0-2,0.1-2.9,0.1-4.9c4.7,0.1,7,0.2,11.7,0.3
						c0,2,0,2.9-0.1,4.9C401,496.3,400.4,496.3,399.2,496.3z"/>
					<path class="st19" d="M429.6,501.1c-2,0-3,0-5,0c0-1.7,0-2.6,0-4.3c-1.9,0-2.9,0-4.8,0c0,6.6,0,9.9-0.1,16.5c1.7,0,2.6,0,4.3,0
						c0,2,0,2.9,0,4.9c-5.8,0-8.7,0-14.4-0.1c0-2,0-2.9,0.1-4.9c1.7,0,2.6,0,4.3,0c0.1-6.6,0.1-9.9,0.1-16.5c-1.9,0-2.9,0-4.8,0
						c0,1.7,0,2.6-0.1,4.3c-2,0-3,0-5-0.1c0.1-3.8,0.1-5.7,0.1-9.4c10,0.2,15.1,0.2,25.1,0.1C429.6,495.4,429.6,497.3,429.6,501.1z"
						/>
					<path class="st19" d="M449.7,513.1c1.4,0,2,0,3.4-0.1c0,2,0.1,2.9,0.1,4.9c-5.1,0.1-7.7,0.2-12.8,0.2c0-2,0-2.9-0.1-4.9
						c1.4,0,2,0,3.4,0c0-1.5,0-2.2,0-3.7c-3.4-5.2-5-7.8-8.3-13c-1.6,0-2.4,0-4,0c0-2,0-2.9,0-4.9c5.4,0,8-0.1,13.4-0.1
						c0,2,0,2.9,0.1,4.9c-1.2,0-1.8,0-3,0c1.9,3,2.8,4.5,4.8,7.5c1.8-3.1,2.7-4.6,4.5-7.7c-1.2,0-1.8,0-2.9,0.1c0-2-0.1-2.9-0.1-4.9
						c5.3-0.1,8-0.2,13.4-0.3c0.1,2,0.1,2.9,0.1,4.9c-1.6,0-2.4,0.1-4,0.1c-3.1,5.3-4.7,8-7.8,13.3
						C449.7,510.9,449.7,511.6,449.7,513.1z"/>
					<path class="st19" d="M497.2,499c-2,0.1-3,0.2-5,0.3c-0.1-1.7-0.1-2.5-0.2-4.1c-3.7,0.2-5.6,0.3-9.3,0.4
						c0.1,2.6,0.2,3.9,0.3,6.5c3.8-0.2,5.7-0.3,9.5-0.4c0.1,2,0.2,3.1,0.3,5.1c-3.8,0.2-5.7,0.3-9.5,0.5c0.1,1.9,0.1,2.9,0.2,4.9
						c1.7-0.1,2.6-0.1,4.3-0.2c0.1,2,0.1,2.9,0.2,4.9c-5.3,0.2-7.9,0.4-13.2,0.6c-0.1-2-0.1-2.9-0.2-4.9c1.2,0,1.9-0.1,3.1-0.1
						c-0.3-6.7-0.4-10.1-0.7-16.8c-1.2,0-1.8,0.1-3.1,0.1c-0.1-2-0.1-2.9-0.2-4.9c9.2-0.3,13.7-0.6,22.9-1.1
						C496.9,493.4,497,495.2,497.2,499z"/>
					<path class="st19" d="M527.3,514.3c-4.9,0.4-7.4,0.6-12.3,0.9c-0.1-1.9-0.2-2.9-0.3-4.9c1.3-0.1,2-0.1,3.3-0.2
						c-0.6-1.1-0.8-1.6-1.4-2.6c-4.5,0.3-6.7,0.5-11.1,0.7c-0.4,1.1-0.6,1.7-1,2.8c1.2-0.1,1.7-0.1,2.9-0.2c0.1,2,0.2,2.9,0.3,4.9
						c-4.6,0.3-6.9,0.4-11.6,0.7c-0.1-1.9-0.2-2.9-0.3-4.9c1-0.1,1.5-0.1,2.5-0.1c2.8-6.9,4.1-10.3,6.8-17.2
						c-1.4,0.1-2.1,0.1-3.5,0.2c-0.1-1.9-0.2-2.9-0.3-4.9c4.5-0.3,6.7-0.4,11.2-0.7c4.5,8.4,6.8,12.6,11.5,20.9
						c1.2-0.1,1.8-0.1,3-0.2C527.1,511.3,527.2,512.3,527.3,514.3z M510.1,495.4c-1.2,3.2-1.8,4.8-2.9,7.9c2.8-0.2,4.1-0.3,6.9-0.4
						C512.5,499.9,511.7,498.4,510.1,495.4z"/>
					<path class="st19" d="M537,508.6c1.3-0.1,1.9-0.2,3.1-0.3c0.2,1.9,0.3,2.9,0.4,4.9c-4.8,0.4-7.2,0.6-12,1
						c-0.2-1.9-0.2-2.9-0.4-4.9c1.3-0.1,1.9-0.1,3.1-0.2c-0.5-6.7-0.8-10-1.3-16.7c-1.2,0.1-1.9,0.1-3.1,0.2
						c-0.2-1.9-0.2-2.9-0.4-4.9c4.7-0.4,7.1-0.6,11.8-1c0.2,1.9,0.3,2.9,0.4,4.9c-1.2,0.1-1.9,0.2-3.1,0.3
						C536.1,498.6,536.4,501.9,537,508.6z"/>
					<path class="st19" d="M571.8,510.1c-4.4,0.5-6.5,0.7-10.9,1.2c-0.2-1.8-0.3-2.6-0.4-4.4c-1.6-1.6-2.4-2.3-3.9-3.9
						c-1.8,0.2-2.8,0.3-4.6,0.4c0.1,1.5,0.2,2.3,0.4,3.8c1.2-0.1,1.8-0.2,3-0.3c0.2,1.9,0.3,2.9,0.5,4.9c-4.8,0.5-7.1,0.7-11.9,1.1
						c-0.2-1.9-0.3-2.9-0.4-4.9c1.2-0.1,1.9-0.2,3.1-0.3c-0.6-6.7-0.9-10-1.5-16.7c-1.2,0.1-1.8,0.2-3.1,0.3
						c-0.2-1.9-0.3-2.9-0.4-4.9c5.6-0.5,8.4-0.8,13.9-1.3c6.2-0.6,10.6,2.5,11.2,8c0.4,3.5-1.2,6.4-4.1,8.2c1.8,1.8,2.7,2.6,4.5,4.4
						c1.7-0.2,2.5-0.3,4.2-0.5C571.5,507.2,571.6,508.2,571.8,510.1z M556.8,498.2c2.8-0.3,4.6-2.1,4.3-4.4
						c-0.3-2.4-2.3-3.8-5.1-3.5c-2.1,0.2-3.2,0.3-5.3,0.5c0.3,3.2,0.5,4.8,0.8,7.9C553.6,498.5,554.7,498.4,556.8,498.2z"/>
				</g>
			</g>
		</g>
	</g>
	<g>
		<g>
			<path class="st21" d="M676.1,911.5c0-3.9,3.2-7.1,7.1-7.1v-5.8c-3.9,0-7.1-3.2-7.1-7.1c0-3.9,3.2-7.1,7.1-7.1v-5.8
				c-3.9,0-7.1-3.2-7.1-7.1c0-3.9,3.2-7.1,7.1-7.1v-5.8c-3.9,0-7.1-3.2-7.1-7.1c0-3.9,3.2-7.1,7.1-7.1v-5.8c-3.9,0-7.1-3.2-7.1-7.1
				c0-3.9,3.2-7.1,7.1-7.1v-5.8c-3.9,0-7.1-3.2-7.1-7.1c0-3.9,3.2-7.1,7.1-7.1v-5.8c-3.9,0-7.1-3.2-7.1-7.1c0-3.9,3.2-7.1,7.1-7.1
				v-5.8c-3.9,0-7.1-3.2-7.1-7.1c0-3.9,3.2-7.1,7.1-7.1v-5.8c-3.9,0-7.1-3.2-7.1-7.1c0-3.9,3.2-7.1,7.1-7.1v-5.8
				c-3.9,0-7.1-3.2-7.1-7.1c0-3.9,3.2-7.1,7.1-7.1V719c-3.9,0-7.1-3.2-7.1-7.1c0-3.9,3.2-7.1,7.1-7.1V699c-3.9,0-7.1-3.2-7.1-7.1
				c0-3.9,3.2-7.1,7.1-7.1V679c-3.9,0-7.1-3.2-7.1-7.1c0-3.9,3.2-7.1,7.1-7.1v-5.5H165.7v5.5c3.6,0.4,6.4,3.4,6.4,7
				c0,3.7-2.8,6.7-6.4,7v5.9c3.6,0.4,6.4,3.4,6.4,7c0,3.7-2.8,6.7-6.4,7v5.9c3.6,0.4,6.4,3.4,6.4,7c0,3.7-2.8,6.7-6.4,7v5.9
				c3.6,0.4,6.4,3.4,6.4,7c0,3.7-2.8,6.7-6.4,7v5.9c3.6,0.3,6.4,3.4,6.4,7c0,3.7-2.8,6.7-6.4,7v5.9c3.6,0.4,6.4,3.4,6.4,7
				c0,3.7-2.8,6.7-6.4,7v5.9c3.6,0.3,6.4,3.4,6.4,7c0,3.7-2.8,6.7-6.4,7v5.9c3.6,0.4,6.4,3.4,6.4,7c0,3.7-2.8,6.7-6.4,7v5.9
				c3.6,0.4,6.4,3.4,6.4,7c0,3.7-2.8,6.7-6.4,7v5.9c3.6,0.4,6.4,3.4,6.4,7c0,3.7-2.8,6.7-6.4,7v5.9c3.6,0.4,6.4,3.4,6.4,7
				s-2.8,6.7-6.4,7v5.9c3.6,0.4,6.4,3.4,6.4,7s-2.8,6.7-6.4,7v5.9c3.6,0.4,6.4,3.4,6.4,7c0,3.7-2.8,6.7-6.4,7v5.5h517.4v-5.5
				C679.2,918.5,676.1,915.4,676.1,911.5z"/>
		</g>
		<rect x="185.5" y="672.6" class="st22" width="477.9" height="238.3"/>
		<line class="st22" x1="246.7" y1="672.6" x2="246.7" y2="910.9"/>
		<text transform="matrix(0 1 -1 0 206.1553 711.6484)"><tspan x="0" y="0" class="st3 st7 st8">No. </tspan><tspan x="36.6" y="0" class="st3 st7 st8 st11">1236_778</tspan></text>
		<line class="st22" x1="306.1" y1="671.6" x2="306.1" y2="909.8"/>
		<text transform="matrix(0 1 -1 0 263.041 716.2612)" class="st3 st7 st12 st13">TICKET</text>
		<g>
			<path class="st3" d="M576.6,870c0,0,46.7-13.2,63.9-21.8l-20-13.5l3.1-28.6c0,0-35.7,17.5-69.8,23L576.6,870z"/>
		</g>
		<g>
			<path class="st3" d="M391.5,870c0,0-46.7-13.2-63.9-21.8l20-13.5l-3.1-28.6c0,0,35.7,17.5,69.8,23L391.5,870z"/>
		</g>
		<g>
			<path class="st3" d="M582.4,838.7l-28.5-9.6v28C553.8,857.1,579.5,848.3,582.4,838.7"/>
		</g>
		<g>
			<path class="st3" d="M385.7,838.7l28.5-9.6v28C414.2,857.1,388.5,848.3,385.7,838.7"/>
		</g>
		<g>
			<path class="st6" d="M593.5,884.7c-25.7,6.6-62.6,10.9-109.4,10.9c-46.8,0-83.8-4.3-109.4-10.9l11.1-46
				c22.1,5.7,57.9,9.4,98.3,9.4c40.4,0,76.2-3.7,98.3-9.4L593.5,884.7z"/>
		</g>
		<g>
			<g>
				<path class="st5" d="M410.8,868.2c-1.1,4.2-4.8,6.6-9.1,6.2c-4.9-0.5-8.7-4.5-8.1-9.5c0.5-5,4.9-8.1,9.6-7.6
					c2.1,0.2,3.8,1,5,2.3c0.1-0.6,0.1-0.9,0.1-1.4c1.3,0.1,2,0.2,3.3,0.3c-0.2,2.7-0.4,4-0.6,6.6c-1.3-0.1-2-0.2-3.3-0.3
					c-0.4-2.4-2.2-3.9-4.6-4.1c-2.9-0.3-5.4,1.6-5.8,4.7c-0.3,3.1,1.7,5.5,4.7,5.8c2.4,0.2,4.4-0.9,5.1-3.2
					C408.6,868,409.3,868.1,410.8,868.2z"/>
				<path class="st5" d="M430.5,868.2c-0.3,4.8-4.4,8.3-9.3,7.9c-4.9-0.4-8.5-4.5-8.1-9.3c0.4-4.8,4.5-8.2,9.4-7.9
					C427.3,859.3,430.8,863.4,430.5,868.2z M427,867.9c0.2-2.9-1.8-5.4-4.7-5.7c-2.9-0.2-5.3,2-5.5,4.9c-0.2,2.9,1.8,5.5,4.7,5.7
					C424.4,873.1,426.8,870.8,427,867.9z"/>
				<path class="st5" d="M448.4,863.9c-0.1,2.4-0.2,3.6-0.3,6c-0.2,4.9-3.4,7.7-8,7.5c-4.6-0.2-7.4-3.4-7.1-8.3
					c0.1-2.4,0.2-3.6,0.4-6c-0.8,0-1.1-0.1-1.9-0.1c0.1-1.2,0.1-1.8,0.2-3c2.9,0.2,4.4,0.3,7.3,0.4c-0.1,1.2-0.1,1.8-0.2,3
					c-0.8,0-1.1-0.1-1.9-0.1c-0.1,2.4-0.2,3.6-0.3,6c-0.2,2.7,1.3,4.6,3.7,4.8c2.4,0.1,4.1-1.6,4.3-4.3c0.1-2.4,0.2-3.6,0.3-6
					c-0.8,0-1.2-0.1-1.9-0.1c0.1-1.2,0.1-1.8,0.2-3c2.9,0.1,4.4,0.2,7.3,0.3c0,1.2-0.1,1.8-0.1,3C449.6,864,449.2,863.9,448.4,863.9
					z"/>
				<path class="st5" d="M468.2,864.5c-0.1,5.4-0.2,8.1-0.3,13.5c-1.1,0-1.6,0-2.7-0.1c-3.5-4.1-5.2-6.2-8.5-10.3
					c-0.1,2.8-0.1,4.2-0.2,7.1c0.8,0,1.2,0,1.9,0.1c0,1.2-0.1,1.8-0.1,3c-3-0.1-4.5-0.1-7.4-0.3c0-1.2,0.1-1.8,0.1-3
					c0.8,0,1.2,0,1.9,0.1c0.2-4.2,0.2-6.3,0.4-10.4c-0.8,0-1.1,0-1.9-0.1c0-1.2,0.1-1.8,0.1-3c1.7,0.1,2.6,0.1,4.3,0.2
					c3.4,4.4,5.2,6.5,8.7,10.8c0.1-3,0.1-4.5,0.2-7.5c-0.8,0-1.1,0-1.9,0c0-1.2,0-1.8,0.1-3c2.9,0.1,4.4,0.1,7.3,0.2
					c0,1.2,0,1.8,0,3C469.3,864.5,468.9,864.5,468.2,864.5z"/>
				<path class="st5" d="M487.1,867.5c-1.2,0-1.9,0-3.1,0c0-1.1,0-1.6,0-2.7c-1.2,0-1.8,0-3,0c0,4.1,0,6.2,0,10.3c1.1,0,1.6,0,2.7,0
					c0,1.2,0,1.8,0,3c-3.6,0-5.4,0-9-0.1c0-1.2,0-1.8,0-3c1.1,0,1.6,0,2.7,0c0-4.1,0-6.2,0.1-10.3c-1.2,0-1.8,0-3,0
					c0,1.1,0,1.6,0,2.7c-1.2,0-1.9,0-3.1,0c0-2.3,0.1-3.5,0.1-5.9c6.2,0.1,9.4,0.1,15.6,0.1C487,864,487,865.2,487.1,867.5z"/>
				<path class="st5" d="M499.5,875c0.8,0,1.3,0,2.1,0c0,1.2,0,1.8,0.1,3c-3.2,0.1-4.8,0.1-8,0.1c0-1.2,0-1.8,0-3c0.8,0,1.3,0,2.1,0
					c0-0.9,0-1.4,0-2.3c-2.1-3.2-3.1-4.8-5.2-8.1c-1,0-1.5,0-2.5,0c0-1.2,0-1.8,0-3c3.3,0,5,0,8.3-0.1c0,1.2,0,1.8,0,3
					c-0.7,0-1.1,0-1.9,0c1.2,1.9,1.8,2.8,3,4.7c1.1-1.9,1.7-2.9,2.8-4.8c-0.7,0-1.1,0-1.8,0c0-1.2,0-1.8-0.1-3
					c3.3-0.1,5-0.1,8.3-0.2c0,1.2,0.1,1.8,0.1,3c-1,0-1.5,0-2.5,0.1c-1.9,3.3-2.9,5-4.9,8.3C499.5,873.6,499.5,874,499.5,875z"/>
				<path class="st5" d="M529,866.2c-1.2,0.1-1.9,0.1-3.1,0.2c-0.1-1-0.1-1.5-0.1-2.6c-2.3,0.1-3.5,0.2-5.8,0.3
					c0.1,1.6,0.1,2.4,0.2,4c2.4-0.1,3.5-0.2,5.9-0.3c0.1,1.3,0.1,1.9,0.2,3.2c-2.4,0.1-3.5,0.2-5.9,0.3c0.1,1.2,0.1,1.8,0.1,3
					c1.1,0,1.6-0.1,2.7-0.1c0.1,1.2,0.1,1.8,0.1,3c-3.3,0.2-4.9,0.2-8.2,0.3c0-1.2-0.1-1.8-0.1-3c0.8,0,1.2,0,1.9-0.1
					c-0.2-4.2-0.2-6.3-0.4-10.4c-0.8,0-1.1,0-1.9,0.1c0-1.2-0.1-1.8-0.1-3c5.7-0.2,8.5-0.3,14.2-0.7
					C528.8,862.7,528.9,863.9,529,866.2z"/>
				<path class="st5" d="M547.8,875.7c-3.1,0.2-4.6,0.3-7.6,0.6c-0.1-1.2-0.1-1.8-0.2-3c0.8-0.1,1.2-0.1,2-0.1
					c-0.4-0.7-0.5-1-0.9-1.6c-2.8,0.2-4.1,0.3-6.9,0.4c-0.3,0.7-0.4,1-0.6,1.7c0.7,0,1.1-0.1,1.8-0.1c0.1,1.2,0.1,1.8,0.2,3
					c-2.9,0.2-4.3,0.3-7.2,0.4c-0.1-1.2-0.1-1.8-0.2-3c0.6,0,0.9-0.1,1.6-0.1c1.7-4.3,2.6-6.4,4.2-10.7c-0.9,0.1-1.3,0.1-2.2,0.1
					c-0.1-1.2-0.1-1.8-0.2-3c2.8-0.2,4.2-0.3,6.9-0.4c2.8,5.2,4.3,7.8,7.2,13c0.7-0.1,1.1-0.1,1.8-0.1
					C547.6,873.9,547.7,874.5,547.8,875.7z M537.1,864c-0.7,2-1.1,3-1.8,4.9c1.7-0.1,2.6-0.2,4.3-0.3
					C538.5,866.7,538.1,865.8,537.1,864z"/>
				<path class="st5" d="M553.8,872.2c0.8-0.1,1.2-0.1,1.9-0.2c0.1,1.2,0.2,1.8,0.3,3c-3,0.3-4.5,0.4-7.5,0.6
					c-0.1-1.2-0.1-1.8-0.2-3c0.8-0.1,1.2-0.1,1.9-0.2c-0.3-4.2-0.5-6.2-0.8-10.4c-0.8,0.1-1.2,0.1-1.9,0.2c-0.1-1.2-0.1-1.8-0.2-3
					c2.9-0.2,4.4-0.3,7.3-0.6c0.1,1.2,0.2,1.8,0.3,3c-0.8,0.1-1.2,0.1-1.9,0.2C553.2,865.9,553.4,868,553.8,872.2z"/>
				<path class="st5" d="M575.4,873.1c-2.7,0.3-4.1,0.4-6.8,0.7c-0.1-1.1-0.2-1.6-0.3-2.7c-1-1-1.5-1.4-2.4-2.4
					c-1.1,0.1-1.7,0.2-2.8,0.3c0.1,0.9,0.1,1.4,0.2,2.3c0.8-0.1,1.1-0.1,1.9-0.2c0.1,1.2,0.2,1.8,0.3,3c-3,0.3-4.4,0.4-7.4,0.7
					c-0.1-1.2-0.2-1.8-0.3-3c0.8-0.1,1.2-0.1,1.9-0.2c-0.4-4.2-0.6-6.2-1-10.4c-0.8,0.1-1.1,0.1-1.9,0.2c-0.1-1.2-0.2-1.8-0.3-3
					c3.5-0.3,5.2-0.5,8.6-0.8c3.8-0.4,6.6,1.6,6.9,5c0.2,2.2-0.7,4-2.6,5.1c1.1,1.1,1.7,1.6,2.8,2.7c1-0.1,1.6-0.2,2.6-0.3
					C575.2,871.3,575.2,871.9,575.4,873.1z M566.1,865.7c1.7-0.2,2.8-1.3,2.7-2.8c-0.2-1.5-1.4-2.3-3.2-2.2c-1.3,0.1-2,0.2-3.3,0.3
					c0.2,2,0.3,3,0.5,4.9C564.1,865.9,564.8,865.8,566.1,865.7z"/>
			</g>
		</g>
		<g>
			<g>
				<path class="st3" d="M530.5,779.1c0-4.4,3.7-9.1,2.6-13.2c-1.1-4.2-6.7-6.4-8.8-10.1c-2.1-3.7-1.3-9.7-4.3-12.7
					c-3-3-9-2.2-12.7-4.3c-3.6-2.1-5.9-7.7-10.1-8.8c-4-1.1-8.8,2.6-13.2,2.6c-4.4,0-9.1-3.7-13.2-2.6c-4.2,1.1-6.4,6.7-10.1,8.8
					c-3.7,2.1-9.7,1.3-12.7,4.3c-3,3-2.2,9-4.3,12.7c-2.1,3.6-7.7,5.9-8.8,10.1c-1.1,4,2.6,8.8,2.6,13.1c0,4.4-3.7,9.1-2.6,13.2
					c1.1,4.2,6.7,6.4,8.8,10.1c2.1,3.7,1.3,9.7,4.3,12.7c3,3,9,2.2,12.7,4.3c3.6,2.1,5.9,7.7,10.1,8.8c4,1.1,8.8-2.6,13.2-2.6
					c4.4,0,9.1,3.7,13.2,2.6c4.2-1.1,6.4-6.7,10.1-8.8c3.7-2.1,9.7-1.3,12.7-4.3c3-3,2.2-9,4.3-12.7c2.1-3.6,7.7-5.9,8.8-10.1
					C534.2,788.3,530.5,783.5,530.5,779.1z"/>
			</g>
		</g>
		<g>
			<g>
				<rect x="482.9" y="766.4" class="st23" width="2.3" height="48.5"/>
			</g>
			<g>
				<g>
					<path class="st24" d="M484.9,777.1c0,0,6.9,1.3,12.9-4.7c6-6,4.7-12.9,4.7-12.9s-6.9-1.3-12.9,4.7
						C483.6,770.2,484.9,777.1,484.9,777.1z"/>
				</g>
				<g class="st25">
					<path class="st26" d="M502.5,759.5c0,0-2-0.4-4.9,0.2c0.2,2.6,0.2,5.6-0.3,7.9c-1.2,4.8-7,7.5-12.2,4.6
						c-0.6,2.8-0.2,4.9-0.2,4.9s6.9,1.3,12.9-4.7C503.8,766.4,502.5,759.5,502.5,759.5z"/>
				</g>
			</g>
			<g>
				<g>
					<path class="st24" d="M484,768.3c0,0,5.8-4,5.8-12.4c0-8.5-5.8-12.4-5.8-12.4s-5.8,4-5.8,12.4C478.2,764.3,484,768.3,484,768.3
						z"/>
				</g>
				<g class="st25">
					<path class="st26" d="M486.8,746.4c0.3,4.6,0.7,11.5-0.8,13.5c-1.8,2.4-4.2,2.8-6.8,1.9c1.7,4.4,4.8,6.6,4.8,6.6
						s5.8-4,5.8-12.4C489.9,751.5,488.3,748.4,486.8,746.4z"/>
				</g>
			</g>
			<g>
				<g>
					<path class="st24" d="M478.5,764.2c-6-6-12.9-4.7-12.9-4.7s-1.3,6.9,4.7,12.9c6,6,12.9,4.7,12.9,4.7S484.5,770.2,478.5,764.2z"
						/>
				</g>
				<g class="st25">
					<path class="st26" d="M479,771.5c-2.1,2.1-6.1,1.9-9.8-0.3c0.3,0.4,0.7,0.8,1,1.1c6,6,12.9,4.7,12.9,4.7s1.2-6.4-4.1-12.3
						C480,767.2,480.6,770,479,771.5z"/>
				</g>
			</g>
			<g>
				<g>
					<path class="st24" d="M484.9,792.3c0,0,6.9,1.3,12.9-4.7c6-6,4.7-12.9,4.7-12.9s-6.9-1.3-12.9,4.7
						C483.6,785.4,484.9,792.3,484.9,792.3z"/>
				</g>
				<g class="st25">
					<path class="st26" d="M502.5,774.7c0,0-2-0.4-4.9,0.2c0.2,2.6,0.2,5.6-0.3,7.9c-1.2,4.8-7,7.5-12.2,4.6
						c-0.6,2.8-0.2,4.9-0.2,4.9s6.9,1.3,12.9-4.7C503.8,781.7,502.5,774.7,502.5,774.7z"/>
				</g>
			</g>
			<g>
				<g>
					<path class="st24" d="M478.5,779.4c-6-6-12.9-4.7-12.9-4.7s-1.3,6.9,4.7,12.9c6,6,12.9,4.7,12.9,4.7S484.5,785.4,478.5,779.4z"
						/>
				</g>
				<g class="st25">
					<path class="st26" d="M479,786.8c-2.1,2.1-6.1,1.9-9.8-0.3c0.3,0.4,0.7,0.8,1,1.1c6,6,12.9,4.7,12.9,4.7s1.2-6.4-4.1-12.3
						C480,782.5,480.6,785.2,479,786.8z"/>
				</g>
			</g>
			<g>
				<g>
					<path class="st24" d="M484.9,807.5c0,0,6.9,1.3,12.9-4.7c6-6,4.7-12.9,4.7-12.9s-6.9-1.3-12.9,4.7
						C483.6,800.6,484.9,807.5,484.9,807.5z"/>
				</g>
				<g class="st25">
					<path class="st26" d="M502.5,789.9c0,0-2-0.4-4.9,0.2c0.2,2.6,0.2,5.6-0.3,7.9c-1.2,4.8-7,7.5-12.2,4.6
						c-0.6,2.8-0.2,4.9-0.2,4.9s6.9,1.3,12.9-4.7C503.8,796.8,502.5,789.9,502.5,789.9z"/>
				</g>
			</g>
			<g>
				<g>
					<path class="st24" d="M478.5,794.6c-6-6-12.9-4.7-12.9-4.7s-1.3,6.9,4.7,12.9c6,6,12.9,4.7,12.9,4.7S484.5,800.6,478.5,794.6z"
						/>
				</g>
				<g class="st25">
					<path class="st26" d="M479,801.9c-2.1,2.1-6.1,1.9-9.8-0.3c0.3,0.4,0.7,0.8,1,1.1c6,6,12.9,4.7,12.9,4.7s1.2-6.4-4.1-12.3
						C480,797.6,480.6,800.4,479,801.9z"/>
				</g>
			</g>
		</g>
		<g>
			<g>
				<g>
					<path class="st3" d="M356.4,785.6c-1,0-2.7-1.6-2.7-2.4c0-0.5,0.3-0.2,0.7-0.2c0.7,0,1.1-0.9,1.1-3v-6.5h-2.2
						c-0.9,0-1.5-1.2-1.5-2.1c0-0.5,0.2-0.8,0.6-0.8h3v-13.5c-5.8,0.4-9.8,2.4-9.8,9c0,2.9,1.3,4.6,2.4,5.6c0.5-0.1,0.6,0.2,0.6,0.6
						c0,1.1-1,2.4-2,2.4c-0.2,0-0.4,0-0.6-0.2c-1.2-0.9-3.6-4.1-3.6-8.5c0-8,5.1-12.2,15.1-12.2c2.3,0,8.5,0.1,9.4,0.1
						c0.8,0,1-0.3,1.2-0.3c0.3,0,0.6,0.7,0.6,1.4c0,1-0.6,2.2-1.9,2.2c-0.7,0-5.4-0.1-8-0.1v13.6h5.2c1.3-1,0.6,2.9-0.4,2.9h-4.8
						v7.1C358.7,784.2,357.8,785.6,356.4,785.6z"/>
					<path class="st3" d="M381,776.8c0.2-0.9,0.6-1.2,1-1.2c0.7,0,1.5,0.9,1.5,1.7c0,0,0,0.1,0,0.3c-0.7,2.7-2.4,6.5-5.9,6.5
						c-1.5,0-2.6-0.7-3.2-1.7c-0.8,1-2,1.7-3.6,1.7c-3.2,0-4.9-2.7-4.9-6.3c0-6.9,4.8-11.2,9.9-11.2c1.1,0,1.9,0.7,1.9,1.7
						c0,0.7-0.1,1-0.5,1c-0.4,0-0.8-0.1-1.2-0.1c-3.2,0-6.8,2.7-6.8,8.7c0,2.2,0.9,3.4,2.4,3.4c1.1,0,1.9-1,2.3-2.2v-6.4
						c0-0.8-0.2-1-0.2-1.3c0-0.4,0.5-0.7,1.1-0.7c1.4,0,2.2,0.8,2.2,1.8v6.8c0,0.9,0.4,1.9,1.4,1.9
						C379.8,781.3,380.6,778.6,381,776.8z"/>
					<path class="st3" d="M385.9,779.3c0-2.7,0.7-5.6,2.1-9.2h-3.2h-0.5c0,1.6-0.3,5.2-1,7.6c-0.5,1.7-2.7,0.2-2.3-1.2
						c0.5-1.7,0.6-5.1,0.7-7.2c-1-0.6-1.8-1.5-1.8-2.7c0-1.2,1-1.9,2.1-1.9c1,0,2.2,0.5,2.6,2.2c1.4,0.2,1.8,0.2,2.2,0.2h2.2
						c0.5,0,2.2,1.4,2,2.3c0,0.5-1.9,5.4-1.9,9.5c0,1.2,0.5,2.2,1.7,2.2c1.9,0,2.6-2.7,3-4.5c0.2-0.9,0.6-1.2,1-1.2
						c0.7,0,1.5,0.9,1.5,1.7c0,0.1,0,0.2,0,0.3c-0.7,2.7-2.4,6.5-5.9,6.5C388.2,784,385.9,782.9,385.9,779.3z"/>
					<path class="st3" d="M412.7,784c-2.2,0-3.5-1.8-3.5-3.9v-8.4c0-1.3-0.1-2.4-0.8-2.4c-1.1,0-3.5,3.6-3.7,6.8v6.1
						c0,0.8,0,1.8-1.2,1.8c-0.8,0-2-0.3-2-1.8v-10.5c0-1.3-0.1-2.4-0.8-2.4c-1.1,0-3.5,3.6-3.7,6.8v6.1c0,0.8,0,1.8-1.2,1.8
						c-0.8,0-2-0.3-2-1.8V769c0-0.8-0.2-1-0.2-1.3c0-0.4,0.5-0.7,1.1-0.7c1.4,0,2.2,0.8,2.2,1.8v1.7c1.1-2.2,2.5-4,4.4-4
						c2.5,0,3.2,2,3.3,3.9c1-2.2,2.5-3.9,4.4-3.9c2.7,0,3.3,2.3,3.3,4.2v8.6c0,0.4,0,1.9,1.1,1.9c1.7,0,2.4-2.7,2.8-4.5
						c0.2-0.9,0.6-1.2,1-1.2c0.7,0,1.4,0.9,1.4,1.7c0,0,0,0.1,0,0.3C417.9,780.3,416.3,784,412.7,784z"/>
				</g>
				<g>
					<path class="st3" d="M560.6,785.6c-1,0-2.7-1.6-2.7-2.4c0-0.5,0.3-0.2,0.7-0.2c0.7,0,1.1-0.9,1.1-3v-6.5h-2.2
						c-0.9,0-1.5-1.2-1.5-2.1c0-0.5,0.2-0.8,0.6-0.8h3v-13.5c-5.8,0.4-9.8,2.4-9.8,9c0,2.9,1.3,4.6,2.4,5.6c0.5-0.1,0.6,0.2,0.6,0.6
						c0,1.1-1,2.4-2,2.4c-0.2,0-0.4,0-0.6-0.2c-1.2-0.9-3.6-4.1-3.6-8.5c0-8,5.1-12.2,15.1-12.2c2.3,0,8.5,0.1,9.4,0.1
						c0.8,0,1-0.3,1.2-0.3c0.3,0,0.6,0.7,0.6,1.4c0,1-0.6,2.2-1.9,2.2c-0.7,0-5.4-0.1-8-0.1v13.6h5.2c1.3-1,0.6,2.9-0.4,2.9h-4.8
						v7.1C562.9,784.2,561.9,785.6,560.6,785.6z"/>
					<path class="st3" d="M575.4,779.3c0-2.7,0.7-5.6,2.1-9.2h-3.2h-0.5c0,1.6-0.3,5.2-1,7.6c-0.5,1.7-2.7,0.2-2.3-1.2
						c0.5-1.7,0.6-5.1,0.7-7.2c-1-0.6-1.8-1.5-1.8-2.7c0-1.2,1-1.9,2.1-1.9c1,0,2.2,0.5,2.6,2.2c1.4,0.2,1.8,0.2,2.2,0.2h2.2
						c0.5,0,2.2,1.4,2,2.3c0,0.5-1.9,5.4-1.9,9.5c0,1.2,0.5,2.2,1.7,2.2c1.9,0,2.6-2.7,3-4.5c0.2-0.9,0.6-1.2,1-1.2
						c0.7,0,1.5,0.9,1.5,1.7c0,0.1,0,0.2,0,0.3c-0.7,2.7-2.4,6.5-5.9,6.5C577.7,784,575.4,782.9,575.4,779.3z"/>
					<path class="st3" d="M586.7,778.7c0.6,1.4,1.7,2.6,3.9,2.6c3.2,0,4.6-2.7,5.1-5.2c0.4-1.9,2.7-1,2.5,0.4
						c-0.3,2.5-1.9,7.5-8,7.5c-3.8,0-7.3-3-7.3-8.2c0-5.3,3.2-9.2,6.3-9.2c2.3,0,3.7,1.7,3.7,4.2
						C592.9,773.8,590.8,777.5,586.7,778.7z M586.2,776.4c2.1-1,3.4-3.1,3.4-5.6c0-0.9-0.3-1.5-0.9-1.5c-2,0-2.7,4.6-2.6,6.3
						C586.2,775.9,586.2,776.2,586.2,776.4z"/>
					<path class="st3" d="M595.6,776.3c0.4-1.8,1.3-4.2,2-6.4c-0.4-0.6-0.7-1.2-0.7-2c0-1.4,2.4-3.3,3.5-3.3c1,0,1.5,0.7,1.5,1.9
						c0,1.2-1,2.6-1,2.8c2,3.4,4.5,4.9,4.5,8.9c0,0.5-0.1,1-0.2,1.5c1.9-0.4,2.9-1.7,3.4-3c0.3-0.8,0.6-1.1,1-1.1
						c0.7,0,1.5,1.1,1.5,1.7c0,0.8-1,2.4-1.9,3.2c-1.3,1-3,1.8-5.6,2c-1,0.9-2.4,1.5-4.1,1.5c-1.7,0-3.7-1-4.6-1.7
						c-2-2-0.9-4.1,0-4.1c0.8,0,4.6,2.4,6.7,2.4c0.5-0.5,0.9-1.5,0.9-2.5c0-2.6-1.5-4.4-3-5.9c-0.7,1.6-1.1,3-1.6,5
						C597.6,778.9,595.3,777.7,595.6,776.3z"/>
					<path class="st3" d="M608.9,757.3c0-1.2-0.4-1.3-0.4-1.6c0-0.3,0.7-0.5,1.3-0.5c1.4,0,2.2,0.8,2.2,1.8v13.6
						c1.1-2.3,2.6-4.1,4.6-4.1c2.8,0,3.4,2.3,3.4,4.2v8.6c0,0.4,0,1.9,1.1,1.9c1.7,0,2.4-2.7,2.8-4.5c0.5-2.5,2.7-0.6,2.4,0.7
						c-0.7,2.7-2.4,6.5-5.9,6.5c-2.2,0-3.5-1.8-3.5-3.9v-8.4c0-1.3-0.1-2.4-0.9-2.4c-1.2,0-3.8,3.6-4.1,6.8v6.1c0,0.8,0,1.8-1.2,1.8
						c-0.8,0-2-0.3-2-1.8V757.3z"/>
				</g>
			</g>
		</g>
		<g>
			<g>
				<path class="st27" d="M407.6,713.5c2.2-1,4-0.7,4.8,0.8c1,1.8,0.2,3.7-2.2,5.2c-1.7,1-3.1,1.3-4.4,0.9c0.3,0.5,0.5,0.7,0.8,1.1
					c-0.5,0.4-0.8,0.5-1.4,0.9c-0.8-1.2-1.2-1.8-2-3c0.6-0.4,0.8-0.6,1.4-0.9c1.6,0.8,3,0.9,4.8-0.2c1.4-0.9,2-2,1.4-3
					c-0.4-0.7-1.3-1-2.8-0.4c-0.9,0.4-1.4,0.6-2.3,1c-2.3,1-3.9,0.8-4.8-0.5c-1.1-1.6-0.3-3.8,2.2-5.3c1.5-1,3-1.3,4.2-0.9
					c-0.2-0.4-0.3-0.6-0.6-1c0.6-0.3,0.8-0.5,1.4-0.8c0.6,1.1,1,1.7,1.6,2.8c-0.6,0.3-0.9,0.5-1.5,0.9c-1.1-0.7-2.5-0.9-4.3,0.2
					c-1.5,1-2.1,2.2-1.4,3.1c0.5,0.8,1.5,0.8,3.1,0.1C406.4,714,406.8,713.9,407.6,713.5z"/>
				<path class="st27" d="M421.4,704.5c-0.6,0.3-0.9,0.4-1.5,0.7c-0.4-0.7-0.5-1.1-0.9-1.9c-2.1,1-3.1,1.5-5.2,2.6
					c0.7,1.2,1,1.9,1.6,3.1c1.7-0.9,2.5-1.3,4.2-2.1c0.3,0.5,0.4,0.8,0.6,1.3c-1.7,0.8-2.5,1.2-4.2,2.1c0.6,1.2,0.9,1.8,1.6,3
					c1.9-1,2.9-1.5,4.9-2.4c-0.4-0.7-0.5-1.1-0.9-1.9c0.6-0.3,0.9-0.4,1.4-0.7c0.6,1.3,0.9,1.9,1.5,3.2c-3.7,1.7-5.6,2.7-9.2,4.7
					c-0.3-0.5-0.4-0.7-0.7-1.2c0.6-0.3,0.9-0.5,1.5-0.8c-1.6-3-2.4-4.5-4-7.5c-0.6,0.3-1,0.5-1.6,0.9c-0.3-0.5-0.4-0.7-0.7-1.2
					c3.9-2.2,5.9-3.2,10-5.1C420.5,702.6,420.8,703.2,421.4,704.5z"/>
				<path class="st27" d="M427.7,698c2.8-1.1,5.3-0.3,6,1.8c0.8,2.2-0.6,4.4-3.4,5.5c-0.9,0.4-1.4,0.6-2.3,0.9
					c0.3,0.8,0.5,1.2,0.8,1.9c0.8-0.3,1.2-0.5,1.9-0.8c0.2,0.5,0.3,0.8,0.5,1.3c-2,0.8-3,1.2-5,2.1c-0.2-0.5-0.3-0.8-0.6-1.3
					c0.6-0.3,0.9-0.4,1.6-0.7c-1.3-3.1-2-4.7-3.3-7.8c-0.7,0.3-1,0.4-1.7,0.7c-0.2-0.5-0.3-0.8-0.6-1.3
					C424,699.4,425.3,698.9,427.7,698z M429.9,703.9c1.8-0.7,2.6-2.1,2.1-3.5c-0.5-1.3-2-1.8-3.9-1c-1,0.4-1.6,0.6-2.6,1
					c0.7,1.8,1.1,2.7,1.9,4.5C428.4,704.5,428.9,704.3,429.9,703.9z"/>
				<path class="st27" d="M445.7,695.9c-0.6,0.2-0.9,0.2-1.5,0.4c-0.2-0.8-0.3-1.2-0.5-2c-1.3,0.3-1.9,0.5-3.2,0.9
					c0.9,3.2,1.4,4.8,2.3,8.1c0.8-0.2,1.2-0.4,2.1-0.6c0.1,0.5,0.2,0.8,0.4,1.3c-2.3,0.6-3.4,1-5.7,1.7c-0.2-0.5-0.3-0.8-0.4-1.3
					c0.8-0.3,1.2-0.4,2-0.6c-1-3.2-1.5-4.8-2.4-8.1c-1.3,0.4-1.9,0.6-3.2,1c0.3,0.8,0.4,1.2,0.6,2c-0.6,0.2-0.9,0.3-1.5,0.5
					c-0.5-1.3-0.7-2-1.1-3.3c4.5-1.5,6.7-2.2,11.3-3.4C445.2,693.8,445.4,694.5,445.7,695.9z"/>
				<path class="st27" d="M457.7,693.4c-0.6,0.1-0.9,0.2-1.6,0.3c-0.1-0.8-0.2-1.2-0.4-2c-2.2,0.4-3.3,0.6-5.5,1.1
					c0.3,1.4,0.4,2,0.7,3.4c1.8-0.4,2.7-0.6,4.5-0.9c0.1,0.6,0.2,0.9,0.3,1.4c-1.8,0.3-2.7,0.5-4.5,0.9c0.3,1.3,0.4,2,0.7,3.3
					c2.1-0.4,3.1-0.7,5.2-1c-0.1-0.8-0.2-1.2-0.4-2c0.6-0.1,0.9-0.2,1.5-0.3c0.2,1.4,0.3,2.1,0.6,3.5c-4,0.6-6,1-9.9,2
					c-0.1-0.5-0.2-0.8-0.3-1.4c0.7-0.2,1-0.2,1.6-0.4c-0.8-3.3-1.1-5-1.9-8.3c-0.7,0.2-1,0.2-1.7,0.4c-0.1-0.5-0.2-0.8-0.3-1.4
					c4.3-1,6.4-1.5,10.7-2.2C457.4,691.3,457.5,692,457.7,693.4z"/>
				<path class="st27" d="M474.1,698c0.7,0,1,0,1.7-0.1c0,0.6,0,0.8,0,1.4c-2,0.1-3,0.1-5,0.3c0-0.6-0.1-0.8-0.1-1.4
					c0.7,0,1-0.1,1.6-0.1c-0.1-2.6-0.2-3.8-0.4-6.4c-1.4,2.4-2.1,3.6-3.4,6.1c-0.4,0-0.6,0.1-1.1,0.1c-1.7-2.2-2.7-3.2-4.5-5.4
					c0.3,2.6,0.5,3.8,0.8,6.4c0.7-0.1,1-0.1,1.6-0.2c0.1,0.6,0.1,0.8,0.2,1.4c-2,0.2-3,0.4-4.9,0.6c-0.1-0.6-0.1-0.8-0.2-1.4
					c0.7-0.1,1-0.1,1.7-0.2c-0.5-3.4-0.7-5-1.2-8.4c-0.7,0.1-1,0.1-1.7,0.2c-0.1-0.6-0.1-0.8-0.2-1.4c1.2-0.2,1.8-0.3,2.9-0.4
					c2.4,2.6,3.6,4,5.9,6.7c1.7-3.1,2.6-4.6,4.5-7.6c1.2-0.1,1.8-0.1,3-0.1c0,0.6,0,0.8,0.1,1.4c-0.7,0-1.1,0-1.8,0.1
					C473.9,692.9,473.9,694.6,474.1,698z"/>
				<path class="st27" d="M488.7,696.4c-0.1,1.9-1.8,3-4.5,2.9c-2.6-0.1-4-0.1-6.6,0c0-0.6,0-0.8,0-1.4c0.7,0,1,0,1.7,0
					c0-3.4,0-5.1-0.1-8.5c-0.7,0-1.1,0-1.8,0c0-0.6,0-0.8,0-1.4c2.8-0.1,4.2-0.1,7,0c2.6,0.1,4.2,1.3,4.1,3
					c-0.1,1.2-2.1,2.5-2.1,2.5C486.3,693.6,488.7,695.1,488.7,696.4z M480.9,692.9c1.2,0,1.9,0,3.1,0c1.7,0,2.6-0.6,2.7-1.7
					c0-1-0.8-1.7-2.5-1.8c-1.3,0-2,0-3.3,0C480.9,690.8,480.9,691.5,480.9,692.9z M484.2,697.9c1.8,0,2.8-0.7,2.8-1.8
					c0.1-1.1-0.9-1.7-2.6-1.8c-1.4,0-2.1,0-3.6-0.1c0,1.4,0,2.1,0,3.6C482.2,697.9,482.9,697.9,484.2,697.9z"/>
				<path class="st27" d="M500.7,692.9c-0.6-0.1-1-0.1-1.6-0.2c0.1-0.8,0.2-1.2,0.3-2.1c-2.2-0.3-3.3-0.4-5.6-0.6
					c-0.1,1.4-0.2,2.1-0.3,3.5c1.8,0.2,2.7,0.3,4.6,0.5c-0.1,0.6-0.1,0.9-0.2,1.4c-1.8-0.2-2.7-0.3-4.5-0.5c-0.1,1.4-0.2,2-0.3,3.4
					c2.1,0.2,3.2,0.3,5.3,0.6c0.1-0.8,0.2-1.2,0.3-2.1c0.6,0.1,0.9,0.1,1.5,0.2c-0.2,1.4-0.3,2.1-0.5,3.5c-4-0.6-6-0.8-10-1
					c0-0.6,0.1-0.8,0.1-1.4c0.7,0,1,0.1,1.7,0.1c0.3-3.4,0.4-5.1,0.7-8.5c-0.7-0.1-1.1-0.1-1.8-0.1c0-0.6,0.1-0.8,0.1-1.4
					c4.3,0.3,6.5,0.5,10.8,1.1C501,690.8,500.9,691.5,500.7,692.9z"/>
				<path class="st27" d="M513.3,703.3c-1.6-0.4-2.4-0.6-4-0.9c0.1-0.5,0.2-0.8,0.3-1.3c-0.7-1.2-1.1-1.9-1.8-3.1
					c-1-0.2-1.5-0.3-2.5-0.5c-0.2,1-0.3,1.5-0.5,2.6c0.7,0.1,1,0.2,1.7,0.3c-0.1,0.5-0.2,0.8-0.3,1.4c-2-0.4-3-0.6-4.9-0.9
					c0.1-0.5,0.1-0.8,0.2-1.4c0.7,0.1,1,0.2,1.6,0.3c0.6-3.3,0.8-5,1.4-8.4c-0.7-0.1-1-0.2-1.8-0.3c0.1-0.5,0.1-0.8,0.2-1.4
					c2.6,0.4,4,0.6,6.6,1.2c2.9,0.6,4.4,2.4,3.9,4.6c-0.4,1.7-1.8,2.6-3.8,2.6c0.7,1.3,1.1,1.9,1.8,3.3c0.8,0.2,1.3,0.3,2.1,0.5
					C513.5,702.5,513.4,702.8,513.3,703.3z M508.5,696.7c1.7,0.4,3.1-0.2,3.4-1.6c0.3-1.3-0.7-2.4-2.5-2.8c-1.2-0.2-1.8-0.4-3-0.6
					c-0.3,1.8-0.5,2.6-0.8,4.4C506.7,696.4,507.3,696.5,508.5,696.7z"/>
				<path class="st27" d="M526.9,707.5c-3.2-1.2-4.8-1.7-8-2.7c0.1-0.3,0.1-0.5,0.2-0.8c2-0.9,3-1.4,5-2.3c2-0.9,3-1.5,3.4-2.5
					c0.4-1.1-0.2-2.4-1.7-2.9c-1.5-0.5-2.7,0-3.1,1.2c-0.6-0.2-0.9-0.3-1.6-0.5c0.6-2,2.7-2.8,5.2-2c2.5,0.8,3.6,2.8,2.9,4.7
					c-0.5,1.4-1.7,2.2-4.1,3.2c-1.3,0.5-1.9,0.8-3.2,1.4c2.2,0.7,3.2,1.1,5.4,1.9C527.2,706.7,527.1,707,526.9,707.5z"/>
				<path class="st27" d="M540.8,707.3c-1.5,3.1-4.4,4.4-7.5,3.1c-3.1-1.3-4.1-4.3-2.9-7.5c1.2-3.2,4.2-4.7,7.5-3.3
					C541.3,701,542.3,704.2,540.8,707.3z M539.2,706.5c1.1-2.3,0.6-4.7-1.7-5.6c-2.3-1-4.4,0.2-5.3,2.6c-0.9,2.4-0.4,4.6,1.8,5.5
					C536.1,709.9,538.1,708.8,539.2,706.5z"/>
				<path class="st27" d="M547.1,716.9c-2.8-1.6-4.3-2.4-7.2-3.8c0.2-0.5,0.4-0.7,0.6-1.2c1.2,0.6,1.8,0.9,3,1.5
					c1.5-2.9,2.3-4.3,3.8-7.2c-1.4-0.3-2.1-0.4-3.4-0.7c0.2-0.5,0.4-0.7,0.6-1.2c1.7,0.3,2.6,0.4,4.3,0.7c0.4,0.2,0.6,0.3,0.9,0.5
					c-1.9,3.5-2.8,5.2-4.7,8.7c1.1,0.6,1.6,0.9,2.7,1.5C547.5,716.2,547.4,716.4,547.1,716.9z"/>
				<path class="st27" d="M558,719.3c-1.3,1.9-3.8,2.2-6.1,0.8c-2.3-1.4-3.1-3.9-2-5.8c0.5-0.8,1.2-1.3,2.3-1.8
					c2.4-0.8,3.6-1.2,6.1-2c0.7,0.5,1.1,0.7,1.8,1.2c-1.9,0.5-2.8,0.8-4.6,1.4c0.2,0.1,0.3,0.2,0.5,0.3
					C558.5,715,559.3,717.5,558,719.3z M556.5,718.4c0.8-1.2,0.4-2.9-1.2-3.8c-0.8-0.5-1.5-0.7-2.2-0.6c0,0,0,0-0.1,0
					c-0.8,0.3-1.3,0.6-1.7,1.2c-0.7,1.2-0.3,2.9,1.2,3.8C554,719.9,555.7,719.7,556.5,718.4z"/>
			</g>
		</g>
	</g>
	<g>
		<g>
			<path class="st28" d="M1233.3,281.3c-3.8,0-6.9-3.1-6.9-6.9c0-3.8,3.1-6.9,6.9-6.9c0.3,0,0.7,0.1,1,0.1v-5.5
				c-0.3,0-0.7,0.1-1,0.1c-3.8,0-6.9-3.1-6.9-6.9c0-3.8,3.1-6.9,6.9-6.9c0.3,0,0.7,0.1,1,0.1v-5.5c-0.3,0-0.7,0.1-1,0.1
				c-3.8,0-6.9-3.1-6.9-6.9c0-3.8,3.1-6.9,6.9-6.9c0.3,0,0.7,0.1,1,0.1v-5.5c-0.3,0-0.7,0.1-1,0.1c-3.8,0-6.9-3.1-6.9-6.9
				c0-3.8,3.1-6.9,6.9-6.9c0.3,0,0.7,0.1,1,0.1v-5.5c-0.3,0-0.7,0.1-1,0.1c-3.8,0-6.9-3.1-6.9-6.9c0-3.8,3.1-6.9,6.9-6.9
				c0.3,0,0.7,0.1,1,0.1v-5.5c-0.3,0-0.7,0.1-1,0.1c-3.8,0-6.9-3.1-6.9-6.9c0-3.8,3.1-6.9,6.9-6.9c0.3,0,0.7,0.1,1,0.1v-5.5
				c-0.3,0-0.7,0.1-1,0.1c-3.8,0-6.9-3.1-6.9-6.9c0-3.8,3.1-6.9,6.9-6.9c0.3,0,0.7,0.1,1,0.1v-5.5c-0.3,0-0.7,0.1-1,0.1
				c-3.8,0-6.9-3.1-6.9-6.9c0-3.8,3.1-6.9,6.9-6.9c0.3,0,0.7,0.1,1,0.1v-5.5c-0.3,0-0.7,0.1-1,0.1c-3.8,0-6.9-3.1-6.9-6.9
				c0-3.8,3.1-6.9,6.9-6.9c0.3,0,0.7,0.1,1,0.1V109c-0.3,0-0.7,0.1-1,0.1c-3.8,0-6.9-3.1-6.9-6.9c0-3.8,3.1-6.9,6.9-6.9
				c0.3,0,0.7,0.1,1,0.1v-6.5c-18.2,0-32.9-14.7-32.9-32.9H749.8c0,18.2-14.7,32.9-32.9,32.9v6.5c0.4-0.1,0.9-0.1,1.3-0.1
				c3.8,0,6.9,3.1,6.9,6.9c0,3.8-3.1,6.9-6.9,6.9c-0.5,0-0.9,0-1.3-0.1v5.6c0.4-0.1,0.9-0.1,1.3-0.1c3.8,0,6.9,3.1,6.9,6.9
				c0,3.8-3.1,6.9-6.9,6.9c-0.5,0-0.9-0.1-1.3-0.1v5.6c0.4-0.1,0.9-0.1,1.3-0.1c3.8,0,6.9,3.1,6.9,6.9c0,3.8-3.1,6.9-6.9,6.9
				c-0.5,0-0.9,0-1.3-0.1v5.6c0.4-0.1,0.9-0.1,1.3-0.1c3.8,0,6.9,3.1,6.9,6.9c0,3.8-3.1,6.9-6.9,6.9c-0.5,0-0.9-0.1-1.3-0.1v5.6
				c0.4-0.1,0.9-0.1,1.3-0.1c3.8,0,6.9,3.1,6.9,6.9c0,3.8-3.1,6.9-6.9,6.9c-0.5,0-0.9-0.1-1.3-0.1v5.6c0.4-0.1,0.9-0.1,1.3-0.1
				c3.8,0,6.9,3.1,6.9,6.9c0,3.8-3.1,6.9-6.9,6.9c-0.5,0-0.9,0-1.3-0.1v5.6c0.4-0.1,0.9-0.1,1.3-0.1c3.8,0,6.9,3.1,6.9,6.9
				c0,3.8-3.1,6.9-6.9,6.9c-0.5,0-0.9-0.1-1.3-0.1v5.6c0.4-0.1,0.9-0.1,1.3-0.1c3.8,0,6.9,3.1,6.9,6.9c0,3.8-3.1,6.9-6.9,6.9
				c-0.5,0-0.9,0-1.3-0.1v5.6c0.4-0.1,0.9-0.1,1.3-0.1c3.8,0,6.9,3.1,6.9,6.9c0,3.8-3.1,6.9-6.9,6.9c-0.5,0-0.9-0.1-1.3-0.1v5.6
				c0.4-0.1,0.9-0.1,1.3-0.1c3.8,0,6.9,3.1,6.9,6.9c0,3.8-3.1,6.9-6.9,6.9c-0.5,0-0.9,0-1.3-0.1v6.5c18.2,0,32.9,14.7,32.9,32.9
				h451.6c0-18.2,14.7-32.9,32.9-32.9v-6.5C1233.9,281.3,1233.6,281.3,1233.3,281.3z"/>
		</g>
		<path class="st29" d="M1214.5,97.6c-11.7-5.6-20.8-15.9-24.5-28.5H759.2c-3.7,12.3-12.5,22.5-23.9,28.1v182
			c11.4,5.6,20.2,15.8,23.9,28.1H1190c3.8-12.6,12.8-22.9,24.5-28.5V97.6z"/>
		<line class="st29" x1="735.3" y1="118.8" x2="1214.5" y2="118.8"/>
		<text transform="matrix(1 0 0 1 844.7036 105.8979)" class="st30 st7 st31 st32">VIP . TICKET</text>
		<g>
			<g>
				<g>
					<defs>
						<polygon id="SVGID_1_" points="1176.5,260.4 1108,239.1 1126.4,179.8 1194.9,201.1 1169.6,227.3 						"/>
					</defs>
					<use xlink:href="#SVGID_1_"  style="overflow:visible;fill:#40281C;"/>
					<clipPath id="SVGID_2_">
						<use xlink:href="#SVGID_1_"  style="overflow:visible;"/>
					</clipPath>
					<polygon class="st33" points="1124.8,179.8 1108,237 1108,179.8 					"/>
					<polygon class="st33" points="1125.8,179.8 1108,240.5 1108,237 1124.8,179.8 					"/>
					<polygon class="st33" points="1126.8,179.8 1108.4,242.5 1108,242.4 1108,240.5 1125.8,179.8 					"/>
					<polygon class="st33" points="1127.8,179.8 1109.4,242.8 1108.4,242.5 1126.8,179.8 					"/>
					<polygon class="st33" points="1128.8,179.8 1110.3,243.1 1109.4,242.8 1127.8,179.8 					"/>
					<polygon class="st33" points="1129.8,179.8 1111.2,243.3 1110.3,243.1 1128.8,179.8 					"/>
					<polygon class="st33" points="1130.8,179.8 1112.2,243.6 1111.2,243.3 1129.8,179.8 					"/>
					<polygon class="st33" points="1131.8,179.8 1113.1,243.9 1112.2,243.6 1130.8,179.8 					"/>
					<polygon class="st33" points="1132.9,179.8 1114,244.2 1113.1,243.9 1131.8,179.8 					"/>
					<polygon class="st33" points="1133.4,179.8 1133.8,179.9 1115,244.4 1114,244.2 1132.9,179.8 					"/>
					
						<rect x="1124.4" y="178.7" transform="matrix(-0.9606 -0.278 0.278 -0.9606 2146.3413 729.0148)" class="st33" width="1" height="67.2"/>
					<polygon class="st33" points="1134.8,180.2 1135.7,180.5 1116.8,245 1115.9,244.7 					"/>
					
						<rect x="1126.2" y="179.3" transform="matrix(-0.9597 -0.281 0.281 -0.9597 2148.2417 733.7731)" class="st33" width="1" height="67.2"/>
					<polygon class="st33" points="1136.6,180.8 1137.6,181 1118.7,245.5 1117.8,245.3 					"/>
					<polygon class="st33" points="1137.6,181 1138.5,181.3 1119.6,245.8 1118.7,245.5 					"/>
					
						<rect x="1129" y="180.1" transform="matrix(-0.9593 -0.2825 0.2825 -0.9593 2152.6521 737.8207)" class="st33" width="1" height="67.2"/>
					
						<rect x="1130" y="180.4" transform="matrix(-0.9607 -0.2777 0.2777 -0.9607 2157.0271 733.4602)" class="st33" width="1" height="67.2"/>
					
						<rect x="1130.9" y="180.6" transform="matrix(-0.9593 -0.2825 0.2825 -0.9593 2156.165 739.3851)" class="st33" width="1" height="67.2"/>
					
						<rect x="1131.8" y="180.9" transform="matrix(-0.9594 -0.2821 0.2821 -0.9594 2158.1262 739.7705)" class="st33" width="1" height="67.2"/>
					<polygon class="st33" points="1142.2,182.4 1143.2,182.7 1124.3,247.2 1123.3,246.9 					"/>
					
						<rect x="1133.7" y="181.5" transform="matrix(-0.9592 -0.2828 0.2828 -0.9592 2161.2664 742.0817)" class="st33" width="1" height="67.2"/>
					
						<rect x="1134.6" y="181.7" transform="matrix(-0.9598 -0.2807 0.2807 -0.9598 2164.1567 740.6496)" class="st33" width="1" height="67.2"/>
					<polygon class="st33" points="1145,183.2 1146,183.5 1127.1,248 1126.1,247.7 					"/>
					
						<rect x="1136.5" y="182.3" transform="matrix(-0.9595 -0.2816 0.2816 -0.9595 2167.1941 743.1631)" class="st33" width="1" height="67.2"/>
					
						<rect x="1137.4" y="182.6" transform="matrix(-0.9595 -0.2817 0.2817 -0.9595 2168.8643 744.1133)" class="st33" width="1" height="67.2"/>
					
						<rect x="1138.4" y="182.8" transform="matrix(-0.9603 -0.2791 0.2791 -0.9603 2172.0391 742.1251)" class="st33" width="1" height="67.2"/>
					
						<rect x="1139.3" y="183.1" transform="matrix(-0.9591 -0.2831 0.2831 -0.9591 2171.6138 747.1702)" class="st33" width="1" height="67.2"/>
					
						<rect x="1140.2" y="183.4" transform="matrix(-0.9595 -0.2817 0.2817 -0.9595 2174.1465 746.4611)" class="st33" width="1" height="67.2"/>
					<polygon class="st33" points="1150.6,184.9 1151.6,185.1 1132.7,249.6 1131.7,249.3 					"/>
					<polygon class="st33" points="1151.6,185.1 1152.5,185.4 1133.6,249.9 1132.7,249.6 					"/>
					
						<rect x="1143" y="184.2" transform="matrix(-0.9586 -0.2849 0.2849 -0.9586 2177.6138 752.3276)" class="st33" width="1" height="67.2"/>
					<polygon class="st33" points="1153.4,185.7 1154.4,186 1135.5,250.4 1134.5,250.2 					"/>
					
						<rect x="1144.9" y="184.7" transform="matrix(-0.9591 -0.283 0.283 -0.9591 2182.1482 751.912)" class="st33" width="1" height="67.2"/>
					<polygon class="st33" points="1155.3,186.2 1156.2,186.5 1137.3,251 1136.4,250.7 					"/>
					
						<rect x="1146.8" y="185.3" transform="matrix(-0.9604 -0.2787 0.2787 -0.9604 2188.0476 748.8247)" class="st33" width="1" height="67.2"/>
					
						<rect x="1147.7" y="185.6" transform="matrix(-0.9595 -0.2817 0.2817 -0.9595 2188.1138 752.9239)" class="st33" width="1" height="67.2"/>
					
						<rect x="1148.6" y="185.8" transform="matrix(-0.9595 -0.2816 0.2816 -0.9595 2189.9587 753.5406)" class="st33" width="1" height="67.2"/>
					
						<rect x="1149.6" y="186.1" transform="matrix(-0.9605 -0.2784 0.2784 -0.9605 2193.4739 750.8824)" class="st33" width="1" height="67.2"/>
					
						<rect x="1150.5" y="186.4" transform="matrix(-0.9592 -0.2828 0.2828 -0.9592 2192.7542 756.5132)" class="st33" width="1" height="67.2"/>
					
						<rect x="1151.4" y="186.7" transform="matrix(-0.959 -0.2833 0.2833 -0.959 2194.2461 757.8154)" class="st33" width="1" height="67.2"/>
					<polygon class="st33" points="1161.8,188.1 1162.8,188.4 1143.9,252.9 1142.9,252.6 					"/>
					
						<rect x="1153.3" y="187.2" transform="matrix(-0.9591 -0.283 0.283 -0.9591 2197.9241 759.0782)" class="st33" width="1" height="67.2"/>
					
						<rect x="1154.2" y="187.5" transform="matrix(-0.959 -0.2835 0.2835 -0.959 2199.3896 760.4262)" class="st33" width="1" height="67.2"/>
					<polygon class="st33" points="1164.6,189 1165.6,189.2 1146.7,253.7 1145.7,253.4 					"/>
					
						<rect x="1156.1" y="188" transform="matrix(-0.9595 -0.2818 0.2818 -0.9595 2203.812 760.2278)" class="st33" width="1" height="67.2"/>
					
						<rect x="1157" y="188.3" transform="matrix(-0.9592 -0.2828 0.2828 -0.9592 2205.0303 762.0593)" class="st33" width="1" height="67.2"/>
					
						<rect x="1158" y="188.6" transform="matrix(-0.9603 -0.2788 0.2788 -0.9603 2209.0012 758.5433)" class="st33" width="1" height="67.2"/>
					
						<rect x="1158.9" y="188.8" transform="matrix(-0.9595 -0.2816 0.2816 -0.9595 2209.2227 762.3195)" class="st33" width="1" height="67.2"/>
					
						<rect x="1159.8" y="189.1" transform="matrix(-0.9594 -0.2819 0.2819 -0.9594 2210.7683 763.5182)" class="st33" width="1" height="67.2"/>
					<polygon class="st33" points="1170.2,190.6 1171.2,190.9 1152.3,255.4 1151.3,255.1 					"/>
					
						<rect x="1161.7" y="189.7" transform="matrix(-0.9589 -0.2837 0.2837 -0.9589 2213.2815 767.0338)" class="st33" width="1" height="67.2"/>
					
						<rect x="1162.6" y="189.9" transform="matrix(-0.9596 -0.2814 0.2814 -0.9596 2216.3164 765.3439)" class="st33" width="1" height="67.2"/>
					
						<rect x="1163.6" y="190.2" transform="matrix(-0.9603 -0.2791 0.2791 -0.9603 2219.3594 763.6183)" class="st33" width="1" height="67.2"/>
					
						<rect x="1164.5" y="190.5" transform="matrix(-0.9594 -0.2821 0.2821 -0.9594 2219.4268 767.6909)" class="st33" width="1" height="67.2"/>
					
						<rect x="1165.4" y="190.8" transform="matrix(-0.9602 -0.2794 0.2794 -0.9602 2222.6973 765.5471)" class="st33" width="1" height="67.2"/>
					
						<rect x="1166.4" y="191" transform="matrix(-0.9595 -0.2817 0.2817 -0.9595 2223.1646 768.8378)" class="st33" width="1" height="67.2"/>
					
						<rect x="1167.3" y="191.3" transform="matrix(-0.9596 -0.2814 0.2814 -0.9596 2225.0601 769.3527)" class="st33" width="1" height="67.2"/>
					<polygon class="st33" points="1177.7,192.8 1178.6,193.1 1159.7,257.5 1158.8,257.3 					"/>
					<polygon class="st33" points="1178.6,193.1 1179.6,193.3 1160.7,257.8 1159.7,257.5 					"/>
					
						<rect x="1170.1" y="192.1" transform="matrix(-0.9595 -0.2816 0.2816 -0.9595 2230.2393 771.897)" class="st33" width="1" height="67.2"/>
					<polygon class="st33" points="1180.5,193.6 1194.9,197.8 1194.9,260.4 1169.5,260.4 1161.6,258.1 					"/>
				</g>
			</g>
			<g>
				<g>
					<defs>
						<polygon id="SVGID_3_" points="759.4,200.1 828.2,180 845.6,239.6 776.8,259.7 783.4,223.9 						"/>
					</defs>
					<use xlink:href="#SVGID_3_"  style="overflow:visible;fill:#40281C;"/>
					<clipPath id="SVGID_4_">
						<use xlink:href="#SVGID_3_"  style="overflow:visible;"/>
					</clipPath>
					<polygon class="st34" points="759.4,198 773.3,193.8 792.3,257.5 785.1,259.7 759.4,259.7 					"/>
					<polygon class="st34" points="773.3,193.8 774.3,193.5 793.3,257.2 792.3,257.5 					"/>
					<polygon class="st34" points="774.3,193.5 775.4,193.2 794.3,256.9 793.3,257.2 					"/>
					
						<rect x="784.8" y="191.7" transform="matrix(-0.959 0.2834 -0.2834 -0.959 1602.2382 218.0255)" class="st34" width="1" height="66.5"/>
					
						<rect x="785.8" y="191.4" transform="matrix(-0.9579 0.287 -0.287 -0.9579 1604.0912 214.0921)" class="st34" width="1" height="66.5"/>
					
						<rect x="786.8" y="191.1" transform="matrix(-0.9581 0.2864 -0.2864 -0.9581 1605.9792 213.7896)" class="st34" width="1.1" height="66.5"/>
					
						<rect x="787.8" y="190.8" transform="matrix(-0.9588 0.2841 -0.2841 -0.9588 1607.8899 214.8598)" class="st34" width="1.1" height="66.5"/>
					
						<rect x="788.8" y="190.5" transform="matrix(-0.9589 0.2838 -0.2838 -0.9589 1609.7791 214.2406)" class="st34" width="1" height="66.5"/>
					<polygon class="st34" points="780.4,191.7 781.4,191.4 800.4,255.1 799.4,255.4 					"/>
					
						<rect x="790.9" y="189.9" transform="matrix(-0.9577 0.2876 -0.2876 -0.9577 1613.5028 209.1874)" class="st34" width="1" height="66.5"/>
					
						<rect x="791.9" y="189.6" transform="matrix(-0.9593 0.2825 -0.2825 -0.9593 1615.4493 212.7051)" class="st34" width="1.1" height="66.5"/>
					
						<rect x="792.9" y="189.3" transform="matrix(-0.9581 0.2864 -0.2864 -0.9581 1617.2894 208.4879)" class="st34" width="1" height="66.5"/>
					
						<rect x="793.9" y="189" transform="matrix(-0.9588 0.284 -0.284 -0.9588 1619.2084 209.6491)" class="st34" width="1" height="66.5"/>
					
						<rect x="794.9" y="188.7" transform="matrix(-0.9576 0.2882 -0.2882 -0.9576 1621.0282 205.2073)" class="st34" width="1.1" height="66.5"/>
					
						<rect x="795.9" y="188.4" transform="matrix(-0.9583 0.2857 -0.2857 -0.9583 1622.951 206.4366)" class="st34" width="1.1" height="66.5"/>
					
						<rect x="796.9" y="188.1" transform="matrix(-0.959 0.2833 -0.2833 -0.959 1624.8759 207.6807)" class="st34" width="1" height="66.5"/>
					
						<rect x="797.9" y="187.8" transform="matrix(-0.9585 0.285 -0.285 -0.9585 1626.7356 205.3227)" class="st34" width="1" height="66.5"/>
					
						<rect x="798.9" y="187.5" transform="matrix(-0.9576 0.2882 -0.2882 -0.9576 1628.5593 201.7235)" class="st34" width="1.1" height="66.5"/>
					<polygon class="st34" points="790.4,188.7 791.5,188.4 810.4,252.1 809.4,252.4 					"/>
					
						<rect x="800.9" y="186.9" transform="matrix(-0.959 0.2833 -0.2833 -0.959 1632.4194 204.191)" class="st34" width="1" height="66.5"/>
					
						<rect x="801.9" y="186.6" transform="matrix(-0.9581 0.2865 -0.2865 -0.9581 1634.245 200.5042)" class="st34" width="1.1" height="66.5"/>
					
						<rect x="802.9" y="186.3" transform="matrix(-0.9586 0.2847 -0.2847 -0.9586 1636.1721 201.2526)" class="st34" width="1" height="66.5"/>
					
						<rect x="803.9" y="186" transform="matrix(-0.958 0.2867 -0.2867 -0.958 1638.0144 198.6265)" class="st34" width="1" height="66.5"/>
					<polygon class="st34" points="795.5,187.2 796.5,186.9 815.5,250.6 814.5,250.9 					"/>
					
						<rect x="806" y="185.4" transform="matrix(-0.9578 0.2874 -0.2874 -0.9578 1641.7672 196.2712)" class="st34" width="1.1" height="66.5"/>
					
						<rect x="807" y="185.1" transform="matrix(-0.9589 0.2839 -0.2839 -0.9589 1643.7274 198.4262)" class="st34" width="1" height="66.5"/>
					
						<rect x="808" y="184.8" transform="matrix(-0.9579 0.2872 -0.2872 -0.9579 1645.5359 194.6627)" class="st34" width="1" height="66.5"/>
					
						<rect x="809" y="184.5" transform="matrix(-0.9577 0.2878 -0.2878 -0.9577 1647.4058 193.2554)" class="st34" width="1" height="66.5"/>
					
						<rect x="810" y="184.2" transform="matrix(-0.959 0.2833 -0.2833 -0.959 1649.3958 196.3565)" class="st34" width="1" height="66.5"/>
					
						<rect x="811" y="183.9" transform="matrix(-0.958 0.2866 -0.2866 -0.958 1651.2021 192.5528)" class="st34" width="1.1" height="66.5"/>
					
						<rect x="812" y="183.6" transform="matrix(-0.9589 0.2839 -0.2839 -0.9589 1653.1598 194.0546)" class="st34" width="1" height="66.5"/>
					
						<rect x="813" y="183.3" transform="matrix(-0.9578 0.2874 -0.2874 -0.9578 1654.9535 190.136)" class="st34" width="1.1" height="66.5"/>
					
						<rect x="814" y="183" transform="matrix(-0.9593 0.2825 -0.2825 -0.9593 1656.9644 193.5795)" class="st34" width="1.1" height="66.5"/>
					
						<rect x="815" y="182.7" transform="matrix(-0.9574 0.2887 -0.2887 -0.9574 1658.6821 187.1739)" class="st34" width="1" height="66.5"/>
					
						<rect x="816" y="182.4" transform="matrix(-0.9588 0.2841 -0.2841 -0.9588 1660.696 190.4065)" class="st34" width="1.1" height="66.5"/>
					
						<rect x="817" y="182.1" transform="matrix(-0.9577 0.2876 -0.2876 -0.9577 1662.4795 186.3959)" class="st34" width="1" height="66.5"/>
					
						<rect x="818" y="181.8" transform="matrix(-0.9579 0.2871 -0.2871 -0.9579 1664.3833 186.0365)" class="st34" width="1.1" height="66.5"/>
					
						<rect x="819" y="181.5" transform="matrix(-0.9588 0.284 -0.284 -0.9588 1666.3562 187.8187)" class="st34" width="1" height="66.5"/>
					<polygon class="st34" points="810.6,182.7 811.6,182.4 830.6,246.1 829.6,246.4 					"/>
					
						<rect x="821" y="180.9" transform="matrix(-0.9578 0.2875 -0.2875 -0.9578 1670.0195 182.9747)" class="st34" width="1" height="66.5"/>
					
						<rect x="822.1" y="180.6" transform="matrix(-0.9579 0.2871 -0.2871 -0.9579 1671.9176 182.4524)" class="st34" width="1.1" height="66.5"/>
					
						<rect x="823.1" y="180.3" transform="matrix(-0.9588 0.2841 -0.2841 -0.9588 1673.8973 184.2422)" class="st34" width="1" height="66.5"/>
					
						<rect x="824.1" y="180" transform="matrix(-0.9579 0.2871 -0.2871 -0.9579 1675.6863 180.7822)" class="st34" width="1.1" height="66.5"/>
					
						<rect x="825.1" y="179.7" transform="matrix(-0.9587 0.2844 -0.2844 -0.9587 1677.6602 182.2646)" class="st34" width="1" height="66.5"/>
					
						<rect x="826.1" y="179.4" transform="matrix(-0.9582 0.2861 -0.2861 -0.9582 1679.4857 179.8844)" class="st34" width="1" height="66.5"/>
					
						<rect x="827.1" y="179.1" transform="matrix(-0.9579 0.2871 -0.2871 -0.9579 1681.3375 178.0981)" class="st34" width="1.1" height="66.5"/>
					
						<rect x="828.1" y="178.8" transform="matrix(-0.9588 0.2841 -0.2841 -0.9588 1683.326 179.8832)" class="st34" width="1" height="66.5"/>
					<polygon class="st34" points="819.6,180 819.9,180 820.7,180 839.6,243.4 838.6,243.7 					"/>
					<polygon class="st34" points="821.8,180 840.6,243.1 839.6,243.4 820.7,180 					"/>
					<polygon class="st34" points="822.9,180 841.6,242.8 840.6,243.1 821.8,180 					"/>
					<polygon class="st34" points="824,180 842.6,242.5 841.6,242.8 822.9,180 					"/>
					<polygon class="st34" points="825.1,180 843.6,242.2 842.6,242.5 824,180 					"/>
					<polygon class="st34" points="826.2,180 844.6,241.9 843.6,242.2 825.1,180 					"/>
					<polygon class="st34" points="827.3,180 845.6,241.4 845.6,241.6 844.6,241.9 826.2,180 					"/>
					<polygon class="st34" points="828.4,180 845.6,237.8 845.6,241.4 827.3,180 					"/>
					<polygon class="st34" points="829.5,180 845.6,234.1 845.6,237.8 828.4,180 					"/>
					<polygon class="st34" points="830.6,180 845.6,230.4 845.6,234.1 829.5,180 					"/>
					<polygon class="st34" points="831.7,180 845.6,226.7 845.6,230.4 830.6,180 					"/>
					<polygon class="st34" points="832.8,180 845.6,223.1 845.6,226.7 831.7,180 					"/>
					<polygon class="st34" points="833.9,180 845.6,219.4 845.6,223.1 832.8,180 					"/>
					<polygon class="st34" points="845.6,219.4 833.9,180 845.6,180 					"/>
				</g>
			</g>
			<g>
				<path class="st35" d="M1139.3,235.7c0,0-6.1,3.2-31.3,3.4l6.3-20.4C1114.4,218.7,1125.3,225.3,1139.3,235.7z"/>
			</g>
			<g>
				<path class="st35" d="M814.1,235.7c0,0,6.3,3.3,31.4,3.8l-6-20.5C839.6,219,828.5,225.2,814.1,235.7z"/>
			</g>
			<g>
				<path class="st30" d="M1139.3,235.7c-105.4-36.1-219.7-36.1-325.1,0c-6.7-22.9-13.4-45.8-20.1-68.8
					c118.4-40.5,246.9-40.5,365.3,0C1152.7,189.9,1146,212.8,1139.3,235.7z"/>
			</g>
			<g>
				<g>
					<path class="st5" d="M885.1,178.7c-1.4,8.7-8.4,13-14.4,14.2c-7.6,1.5-13.7-1.7-14.9-7.1c-0.3-1.2-0.3-2.7-0.1-4.1
						c0.9-6.5,1.4-9.7,2.4-16.2c1.4-7.5,7.3-9.6,10.7-9.9c6.2-0.6,10.2,2.5,9.5,8.8c-0.8,6.6-8.1,5-7.3,1.6c0.6-2.7-0.4-4-1.8-3.8
						c-1,0.2-3.1,0.8-3.6,4c-1.1,6.4-1.7,9.5-2.7,15.9c-0.1,0.8-0.1,1.5,0.1,2.1c0.6,2.7,4.4,4,7.9,3.3c3.5-0.7,8.3-3.9,9-9.2
						C880,175.3,885.7,175.1,885.1,178.7z"/>
					<path class="st5" d="M898.1,179.1c2.6-0.4,4.5-2.5,5.1-5.2c0.8-3.7,6.3-3.4,5.4,0.8c-1,4.6-4.6,8.7-9.8,9.4
						c-0.9,0.1-2.4-0.1-2.7,0.1c-1.2,0.7-4.3,5-7.7,5.6c-4.5,0.7-8.9-1.2-9.7-5.6c-0.2-0.9-0.1-2,0-3.1c0.8-4,1.2-6,2-10
						c0.8-4,4.5-6.8,8.8-7.5c4.9-0.8,9.5,1.5,9.8,5.9c0.1,1.7-0.8,6.1-1.4,7.2c-0.2,0.4-0.7,0.9-0.8,1.1c-0.1,0.3,0.4,1.4,0.4,1.4
						C897.4,179.1,897.9,179.1,898.1,179.1z M892.7,170.1c-0.1-1-1.2-1.7-2.6-1.5c-1.4,0.2-2.5,1.3-2.8,2.7c-1,4.5-1.9,7.8-2.3,9.8
						c-0.2,1-0.5,4.2,2.4,3.7c1.3-0.2,2.5-1.3,2.8-2.8c0,0,0-0.1,0-0.1c-0.1-0.3-1.9-1.2-2.1-2.6c-0.4-2.5,3.6-4.4,4-4.9
						c0.1-0.1,0.1-0.7,0.2-1.1C892.5,172.4,892.8,170.8,892.7,170.1z"/>
					<path class="st5" d="M932.6,172.9c-2.5,9-7,12-11.2,12.4c-2.6,0.3-6.3-2.2-6.6-2.2c-0.5,0-3.5,3.4-6.2,3.7
						c-3.7,0.5-6.9-1.4-7.4-4.8c-0.1-0.7-0.1-1.5,0.1-2.3c1.4-6.1,2.1-9.1,3.6-15.2c1.1-4.6,7.8-3.2,6.6,1
						c-1.5,5.6-2.2,8.3-3.6,13.9c-0.1,0.4-0.1,0.9-0.1,1.2c0.1,0.6,0.5,1,1.2,0.9c1.8-0.2,3.7-2.4,4.7-4.8c1.4-5.5,2.1-8.2,3.5-13.6
						c1.2-4.6,7.7-3.1,6.6,0.9c-1.6,5.9-2.4,8.9-4,14.8c-0.1,0.2-0.1,0.5-0.1,0.6c0.1,0.6,0.6,1,1.4,0.9c2-0.2,4.5-2.7,5.8-7.9
						C928,169.1,933.5,169.8,932.6,172.9z"/>
					<path class="st5" d="M956.2,171.4c-2.8,8.3-7.4,11.6-11.9,11.9c-3.7,0.2-7.2-1.7-7.5-5.6c-0.1-0.9,0-1.8,0.4-2.8
						c1-3.5,1.6-5.2,2.6-8.7c0.1-0.4,0.2-0.8,0.2-1.1c-0.1-0.8-0.7-1.3-1.5-1.2c-1.3,0.1-3.1,1.3-3.9,3.4c-1.4,3.7-2.9,9.9-4.1,14.1
						c-1.1,4.1-7.4,4.4-6.6,0c2.2-8.2,3.3-12.3,5.7-20.5c0.5-2.4,5.3-1,5.6-1c0.3,0.1,2.6-1.2,4.3-1.3c3.7-0.2,6.9,1.9,7.1,5.3
						c0,0.7-0.1,1.5-0.4,2.4c0,0,0,0,0,0c-1.2,3.9-1.8,5.8-3,9.7c-0.1,0.4-0.2,0.8-0.2,1.1c0,0.7,0.5,1.1,1.3,1.1
						c2.1-0.1,4.6-2.5,6.2-7.6C951.7,167.5,957.4,168,956.2,171.4z"/>
					<path class="st5" d="M970.8,171.3c-2.5,7-7.1,11.1-12.8,11.3c-4.5,0.2-8.7-2.2-8.9-6.5c0-0.9,0.1-1.8,0.4-2.9c0,0,0,0,0,0
						c1.2-3.7,2-6.1,3.2-9.8c-0.6,0-0.9,0-1.5,0.1c-2.7,0.1-3.4-4.9,1.3-5.1c0.8,0,1.2-0.1,1.9-0.1c1.3-3.6,1.9-5.5,3.2-9.1
						c1.4-4.3,7.8-2.5,6.7,0.8c-1.2,3.2-1.7,4.8-2.9,8.1c0.8,0,1.2,0,2.1-0.1c3.9-0.1,3.2,5-0.9,5.1c-1.2,0-1.8,0-3,0.1
						c-1.6,4.6-2.4,6.9-3.9,11.4c-0.1,0.3-0.2,0.6-0.1,0.9c0,1.1,1.1,2,2.7,1.9c2.6-0.1,5.3-2.4,7-7.1
						C966.6,167.1,971.9,168.3,970.8,171.3z"/>
					<path class="st5" d="M980.8,160.1c1.5-4.5,8.1-3,6.4,1.7c-3.5,8.7-6.8,17.6-10,26.4c-2,5.4-5.8,6.8-8.9,6.9
						c-4.4,0.1-7.4-2.9-7.5-6.6c-0.1-3.7,2.5-5.7,4.9-5.8c2.2,0,3.8,1.5,3.8,3.6c0,1.9-3,3.2-3,3.2c0,0,0.8,0.5,1.3,0.5
						c1,0,2.3-1,2.9-2.4c0.9-2.3,2-5.6,2-5.6c-0.1-0.1-1.8,0.5-2.8,0.5c-3.6,0-6.6-2.2-6.7-5.6c0-0.8,0.1-1.6,0.4-2.4
						c2-5.7,3-8.6,5.1-14.3c1.3-4.6,8.7-3.9,6.5,1.3c-2,5.4-3,8-4.9,13.4c-0.2,0.4-0.2,0.8-0.2,1.1c0,0.8,0.5,1.2,1.3,1.2
						c1.2,0,2.8-0.9,4.2-3.2C977.6,168.5,978.6,165.7,980.8,160.1z"/>
					<path class="st5" d="M1032.2,162.5c2.9,0.3,3.1,5.6-2.1,5.1c-1.1-0.1-1.6-0.1-2.7-0.2c-1.4,2.9-2.7,5.8-4.1,8.6
						c-3,6.5-7.7,8.2-12.2,7.9c-5.9-0.4-10-4.8-9.6-8.9c0.6-5.4,7-2.4,7,0.9c0,0.8,1.4,2.1,3,2.2c2.3,0.1,4.2-0.4,6-4.4
						c1.2-2.7,1.9-4.1,3.1-6.8c-0.2,0-0.3,0-0.5,0c-4.4-0.3-4-5.7,0.8-5.3c0.8,0.1,1.3,0.1,2.1,0.2c1.2-2.6,3.5-6.4,3.4-6.6
						c-0.3-0.6-2.1-0.2-2.1-0.2c-5-0.4-3.6-6.1,0.4-5.8c7.9,0.6,11.9,1,19.8,2c5.2,0.3,4.3,6.4-1.2,5.8c-4.1-0.5-6.1-0.7-10.2-1.1
						c-1.3,2.6-1.9,3.9-3.2,6.5C1030.7,162.4,1031.2,162.4,1032.2,162.5z"/>
					<path class="st5" d="M1061.6,178.6c-0.5,0.8-0.8,1.2-1.2,1.9c-3.8,5.6-8.4,6.9-12,6.4c-1.4-0.2-5.3-3.2-5.7-3.3
						c-0.5-0.1-3.9,1.7-5.9,1.5c-3.9-0.4-6.5-3.6-6.2-7.1c0.1-0.8,0.3-1.5,0.7-2.2c2.1-4.3,3.2-6.5,5.4-10.8
						c1.7-3.1,5.1-4.3,8.1-3.9c2.5,0.3,4.8,2,5.1,2c1.2,0,8-0.3,5.8,3.7c-2.8,5.1-4.2,7.7-6.9,12.8c-0.2,0.4-0.3,0.9-0.4,1.2
						c-0.1,0.7,0.3,1.1,1.1,1.2c2,0.3,4.8-1.4,7-5.4C1058.3,173.3,1063.9,174.8,1061.6,178.6z M1043.2,176.3
						c0.9-1.7,1.3-2.5,2.1-4.1c2-3.9-0.1-4.6-0.2-4.7c-0.1-0.1-1.9-1-3.7,2.4c-1.2,2.5-1.9,3.8-3.1,6.3c-0.4,0.8-0.9,2.6,0.5,3
						C1039.7,179.4,1041.5,179.3,1043.2,176.3z"/>
					<path class="st5" d="M1060.6,181.4c-0.1,0.2-0.2,0.4-0.2,0.7c-0.1,0.8,0.4,1.5,1.5,1.7c1.8,0.3,4.4-1.1,7.4-6.2
						c1.8-2.9,6.9-0.9,5.3,1.9c-4.6,8.1-9.7,9.8-14,9.2c-4-0.6-7.1-3.4-6.6-7.3c0.1-0.7,0.5-1.8,0.9-2.6c1.9-3.7,4.6-8.4,6.6-12.2
						c2.4-4.4,8.5-2.1,6.1,2.5C1064.8,174,1063.4,176.4,1060.6,181.4z M1066.9,156.9c0.3-1.9,2.3-3.1,4.4-2.8c2.1,0.3,3.6,2.1,3.2,4
						c-0.3,1.9-2.3,3.2-4.4,2.8C1068,160.6,1066.6,158.8,1066.9,156.9z"/>
					<path class="st5" d="M909.3,199.1c3.9-3.2,10.5-5.7,17.9-7.5c7.5-1.8,16.5-3.1,25.3-3.6c13.9-0.8,28.1-0.8,42.2-0.2
						c21.3,1,42.4,2.9,63.6,6c7.4,1.3,32.9,8.7,33.4-5.1c0-0.1,0-0.1,0-0.1c-3.2,3.1-6.7,4.5-10.1,3.8c-3.6-0.7-6.2-3.6-5.5-7.3
						c0.2-0.8,0.5-1.7,1-2.6c1.2-1.9,1.7-2.8,2.9-4.7c1-1.9-0.8-2.7-2.3-3.4c-1.5,2.3-2.2,3.5-3.6,5.8c-1.6,2.9-6.9,1.5-5.2-1.9
						c1.9-3.1,2.8-4.6,4.7-7.7c-0.6-1-0.8-2.1-0.6-3.2c0.1-0.6,0.4-1.4,0.8-1.9c0.8-1.3,2.4-2.2,4.3-1.9c2.4,0.4,2.8,4.8,2.9,5.3
						c0.2,0.7,7.5,3.9,6.7,7.9c-0.1,0.7-0.5,1.4-0.9,2.2c-1.6,2.5-2.4,3.8-4,6.3c-0.2,0.3-0.3,0.6-0.4,0.9c-0.1,0.6,0.1,1.1,0.7,1.3
						c1.8,0.4,4.6-2.5,7.2-5.9c0.1-0.1,0.1-0.1,0.1-0.2c1.7-1.6,5-0.8,5.6,1.1c0.6,1.6,2.3,5.9,0.9,9.9c-5,14.8-27.7,8.4-39,6.7
						c-21.2-3-42.2-5-63.6-6c-13.9-0.6-27.9-0.6-41.6,0.2c-8.5,0.5-17.3,1.8-24.5,3.5c-7.3,1.7-12.9,4-15.7,6.4
						c-1.1,0.9-2.8,0.8-3.8-0.3C907.9,201.7,908.1,200,909.3,199.1z"/>
				</g>
			</g>
		</g>
		<g>
			<g>
				<path class="st30" d="M887.7,256.2c5,0.1,8.2,2.1,8.2,7.6c0,6.6-4.5,11.2-11.6,12.6c-3.6,0.7-6.6,0.4-8.8-1c0,0.9,0,1.3,0,2.2
					c-3,0.7-4.6,1-7.6,1.8c0-4.2,0-6.3,0-10.5c3.3-0.8,4.9-1.2,8.1-1.9c1,1.9,3.3,2.4,6.1,1.8c2.2-0.5,3.1-1.4,3.1-2.3
					c0-0.7-0.5-1.5-2.3-1.5c-2.5,0-3.7,0-6.1,0c-6.1,0-8.8-2.2-8.8-7.2c0-6.8,5.2-11.6,11.7-13c2.6-0.6,5.7-0.6,8.1,0.8
					c0-0.7,0-1.1,0-1.8c3-0.6,4.5-0.9,7.6-1.4c0,4,0,6,0,9.9c-3.6,0.6-5.3,1-8.9,1.7c-0.7-1.5-2.3-2.4-4.8-1.9
					c-1.6,0.3-2.8,1.2-2.8,2.5c0,1.1,0.9,1.5,2.4,1.5C883.9,256.1,885.1,256.2,887.7,256.2z"/>
				<path class="st30" d="M930.8,245.2c0,3.3,0,5,0,8.3c0,10.4-5.6,16.4-15.2,17.6c-9.6,1.3-15.1-3.3-15.1-13.6c0-3.3,0-5,0-8.3
					c-1.2,0.2-1.8,0.3-3,0.5c0-3,0-4.6,0-7.6c6.3-1.1,9.4-1.6,15.7-2.4c0,3,0,4.6,0,7.6c-1.2,0.2-1.8,0.2-3,0.4c0,3.5,0,5.2,0,8.7
					c0,4.1,2,6.3,5.4,5.8c3.4-0.4,5.5-3.1,5.5-7.2c0-3.5,0-5.2,0-8.7c-1.2,0.1-1.8,0.2-3,0.4c0-3,0-4.6,0-7.6
					c6.3-0.8,9.4-1.1,15.7-1.7c0,3,0,4.6,0,7.6C932.6,245,932,245,930.8,245.2z"/>
				<path class="st30" d="M973.7,258.8c1.2,0,1.8,0,3,0c0,3.1,0,4.6,0,7.6c-6.1,0-9.2,0-15.3,0.2c0-3.1,0-4.6,0-7.7
					c1.1,0,1.6,0,2.7-0.1c0-2.7,0-4.1,0-6.8c-2.2,3-3.3,4.6-5.5,7.6c-2,0.1-3,0.1-5,0.2c-2.2-2.9-3.3-4.3-5.5-7.2c0,2.7,0,4.1,0,6.8
					c1-0.1,1.6-0.1,2.6-0.2c0,3.1,0,4.6,0,7.6c-6.1,0.3-9.2,0.6-15.3,1.1c0-3.1,0-4.6,0-7.7c1.2-0.1,1.8-0.2,3-0.3
					c0-6.4,0-9.5,0-15.9c-1.2,0.1-1.8,0.1-3,0.3c0-3,0-4.6,0-7.6c4.3-0.4,6.4-0.5,10.7-0.8c4,5.1,5.9,7.6,9.9,12.8
					c4-5.5,6-8.2,10-13.7c4.3-0.1,6.4-0.1,10.7-0.1c0,3,0,4.6,0,7.6c-1.2,0-1.8,0-3,0C973.7,249.3,973.7,252.5,973.7,258.8z"/>
				<path class="st30" d="M1017.4,260.6c1.2,0.1,1.8,0.2,3,0.3c0,3.1,0,4.6,0,7.7c-6.1-0.6-9.2-0.8-15.3-1.2c0-3.1,0-4.6,0-7.6
					c1.1,0.1,1.6,0.1,2.7,0.2c0-2.7,0-4.1,0-6.8c-2.2,2.8-3.3,4.3-5.5,7.1c-2-0.1-3-0.2-5-0.3c-2.2-3.1-3.3-4.6-5.5-7.7
					c0,2.7,0,4.1,0,6.8c1.1,0,1.6,0,2.6,0.1c0,3.1,0,4.6,0,7.6c-6.1-0.2-9.2-0.3-15.3-0.3c0-3.1,0-4.6,0-7.6c1.2,0,1.8,0,3,0
					c0-6.4,0-9.5,0-15.9c-1.2,0-1.8,0-3,0c0-3,0-4.6,0-7.6c4.3,0,6.4,0.1,10.7,0.2c4,5.4,6,8.2,9.9,13.7c4-5.1,6-7.7,9.9-12.7
					c4.3,0.3,6.4,0.5,10.7,0.9c0,3,0,4.6,0,7.6c-1.2-0.1-1.8-0.2-3-0.3C1017.4,251.1,1017.4,254.2,1017.4,260.6z"/>
				<path class="st30" d="M1050.2,251.8c-3.1-0.5-4.6-0.7-7.6-1.2c0-1.1,0-1.6,0-2.7c-2.8-0.4-4.3-0.6-7.1-1c0,1.6,0,2.4,0,4
					c4.1,0.5,6.2,0.8,10.3,1.4c0,2.9,0,4.4,0,7.3c-4.1-0.6-6.2-0.9-10.3-1.4c0,1.6,0,2.4,0,3.9c2.8,0.4,4.3,0.6,7.1,1
					c0-1.1,0-1.6,0-2.7c3.1,0.4,4.6,0.7,7.6,1.2c0,4.2,0,6.4,0,10.6c-10.9-1.7-16.4-2.5-27.3-3.6c0-3.1,0-4.6,0-7.6
					c1.2,0.1,1.8,0.2,3,0.3c0-6.4,0-9.5,0-15.9c-1.2-0.1-1.8-0.2-3-0.3c0-3,0-4.6,0-7.6c11,1.1,16.4,1.8,27.3,3.6
					C1050.2,245.4,1050.2,247.6,1050.2,251.8z"/>
				<path class="st30" d="M1085.1,279.3c-5.6-1.3-8.4-2-14-3.1c0-1.7,0-2.5,0-4.2c-1.4-2.1-2.1-3.2-3.5-5.3
					c-1.1-0.2-1.7-0.3-2.8-0.5c0,3.5,0,5.3,0,8.8c-5-1-7.5-1.4-12.5-2.2c0-3.1,0-4.6,0-7.6c1.2,0.2,1.8,0.3,3,0.5
					c0-6.4,0-9.5,0-15.9c-1.2-0.2-1.8-0.3-3-0.5c0-3,0-4.6,0-7.6c6.8,1.1,10.2,1.7,16.9,3.1c8.6,1.7,13.5,7.1,13.5,14.3
					c0,4-1.8,6.8-5.1,7.9c1,1.5,1.5,2.2,2.6,3.7c1.9,0.4,2.8,0.7,4.7,1.1C1085.1,274.7,1085.1,276.2,1085.1,279.3z M1069.3,259.4
					c2.4,0.5,3.9-0.5,3.9-2.6c0-1.9-1.6-3.6-3.9-4c-1.8-0.4-2.7-0.5-4.5-0.9c0,2.6,0,4,0,6.6C1066.6,258.8,1067.5,259,1069.3,259.4z
					"/>
			</g>
		</g>
	</g>
	<g>
		<g>
			<path class="st36" d="M1233.3,884.8c-3.8,0-6.9-3.1-6.9-6.9c0-3.8,3.1-6.9,6.9-6.9c0.3,0,0.7,0.1,1,0.1v-5.5
				c-0.3,0-0.7,0.1-1,0.1c-3.8,0-6.9-3.1-6.9-6.9c0-3.8,3.1-6.9,6.9-6.9c0.3,0,0.7,0.1,1,0.1v-5.5c-0.3,0-0.7,0.1-1,0.1
				c-3.8,0-6.9-3.1-6.9-6.9c0-3.8,3.1-6.9,6.9-6.9c0.3,0,0.7,0.1,1,0.1v-5.5c-0.3,0-0.7,0.1-1,0.1c-3.8,0-6.9-3.1-6.9-6.9
				c0-3.8,3.1-6.9,6.9-6.9c0.3,0,0.7,0.1,1,0.1v-5.5c-0.3,0-0.7,0.1-1,0.1c-3.8,0-6.9-3.1-6.9-6.9c0-3.8,3.1-6.9,6.9-6.9
				c0.3,0,0.7,0.1,1,0.1V789c-0.3,0-0.7,0.1-1,0.1c-3.8,0-6.9-3.1-6.9-6.9c0-3.8,3.1-6.9,6.9-6.9c0.3,0,0.7,0.1,1,0.1v-5.5
				c-0.3,0-0.7,0.1-1,0.1c-3.8,0-6.9-3.1-6.9-6.9c0-3.8,3.1-6.9,6.9-6.9c0.3,0,0.7,0.1,1,0.1v-5.5c-0.3,0-0.7,0.1-1,0.1
				c-3.8,0-6.9-3.1-6.9-6.9c0-3.8,3.1-6.9,6.9-6.9c0.3,0,0.7,0.1,1,0.1v-5.5c-0.3,0-0.7,0.1-1,0.1c-3.8,0-6.9-3.1-6.9-6.9
				c0-3.8,3.1-6.9,6.9-6.9c0.3,0,0.7,0.1,1,0.1v-5.5c-0.3,0-0.7,0.1-1,0.1c-3.8,0-6.9-3.1-6.9-6.9c0-3.8,3.1-6.9,6.9-6.9
				c0.3,0,0.7,0.1,1,0.1v-6.5c-18.2,0-32.9-14.7-32.9-32.9H749.8c0,18.2-14.7,32.9-32.9,32.9v6.5c0.4-0.1,0.9-0.1,1.3-0.1
				c3.8,0,6.9,3.1,6.9,6.9c0,3.8-3.1,6.9-6.9,6.9c-0.5,0-0.9,0-1.3-0.1v5.6c0.4-0.1,0.9-0.1,1.3-0.1c3.8,0,6.9,3.1,6.9,6.9
				c0,3.8-3.1,6.9-6.9,6.9c-0.5,0-0.9-0.1-1.3-0.1v5.6c0.4-0.1,0.9-0.1,1.3-0.1c3.8,0,6.9,3.1,6.9,6.9c0,3.8-3.1,6.9-6.9,6.9
				c-0.5,0-0.9-0.1-1.3-0.1v5.6c0.4-0.1,0.9-0.1,1.3-0.1c3.8,0,6.9,3.1,6.9,6.9c0,3.8-3.1,6.9-6.9,6.9c-0.5,0-0.9-0.1-1.3-0.1v5.6
				c0.4-0.1,0.9-0.1,1.3-0.1c3.8,0,6.9,3.1,6.9,6.9c0,3.8-3.1,6.9-6.9,6.9c-0.5,0-0.9,0-1.3-0.1v5.6c0.4-0.1,0.9-0.1,1.3-0.1
				c3.8,0,6.9,3.1,6.9,6.9c0,3.8-3.1,6.9-6.9,6.9c-0.5,0-0.9-0.1-1.3-0.1v5.6c0.4-0.1,0.9-0.1,1.3-0.1c3.8,0,6.9,3.1,6.9,6.9
				c0,3.8-3.1,6.9-6.9,6.9c-0.5,0-0.9-0.1-1.3-0.1v5.6c0.4-0.1,0.9-0.1,1.3-0.1c3.8,0,6.9,3.1,6.9,6.9c0,3.8-3.1,6.9-6.9,6.9
				c-0.5,0-0.9,0-1.3-0.1v5.6c0.4-0.1,0.9-0.1,1.3-0.1c3.8,0,6.9,3.1,6.9,6.9c0,3.8-3.1,6.9-6.9,6.9c-0.5,0-0.9-0.1-1.3-0.1v5.6
				c0.4-0.1,0.9-0.1,1.3-0.1c3.8,0,6.9,3.1,6.9,6.9c0,3.8-3.1,6.9-6.9,6.9c-0.5,0-0.9,0-1.3-0.1v6.5c18.2,0,32.9,14.7,32.9,32.9
				h451.6c0-18.2,14.7-32.9,32.9-32.9v-6.5C1233.9,884.7,1233.6,884.8,1233.3,884.8z"/>
		</g>
		<path class="st37" d="M1214.5,701c-11.7-5.6-20.8-15.9-24.5-28.5H759.2c-3.7,12.3-12.5,22.5-23.9,28.1v182
			c11.4,5.6,20.2,15.8,23.9,28.1H1190c3.8-12.6,12.8-22.9,24.5-28.5V701z"/>
		<line class="st37" x1="1057.3" y1="672.6" x2="1057.3" y2="910.9"/>
		<line class="st37" x1="1154.7" y1="672.6" x2="1154.7" y2="910.9"/>
		<text transform="matrix(0 -1 1 0 1191.0352 864.602)"><tspan x="0" y="0" class="st4 st7 st8">No. </tspan><tspan x="36.6" y="0" class="st4 st7 st8 st11">1236_778</tspan></text>
		<text transform="matrix(0 -1 1 0 1118.8105 867.1971)" class="st4 st7 st12 st13">TICKET</text>
		<g>
			<g>
				<rect x="874.4" y="794.3" class="st4" width="126.4" height="2.3"/>
				
					<rect x="936.4" y="732.2" transform="matrix(0.3838 -0.9234 0.9234 0.3838 -156.8157 1355.8539)" class="st4" width="2.3" height="126.4"/>
				<polygon class="st4" points="962.7,853.4 960.6,854.3 912.4,737.4 914.5,736.6 				"/>
				
					<rect x="936.4" y="732.2" transform="matrix(0.9232 0.3843 -0.3843 0.9232 377.6223 -299.1902)" class="st4" width="2.3" height="126.4"/>
				<polygon class="st4" points="879.6,820.6 878.7,818.5 995.5,770.3 996.4,772.4 				"/>
				<rect x="936.4" y="732.2" class="st4" width="2.3" height="126.4"/>
				
					<rect x="936.4" y="732.2" transform="matrix(-0.7066 0.7076 -0.7076 -0.7066 2162.8958 694.1353)" class="st4" width="2.3" height="126.4"/>
				
					<rect x="936.4" y="732.2" transform="matrix(-0.7071 -0.7071 0.7071 -0.7071 1038.0211 2020.8408)" class="st4" width="2.3" height="126.4"/>
			</g>
			<ellipse class="st4" cx="1013.3" cy="790.2" rx="9.5" ry="72.5"/>
			<path class="st38" d="M865.2,795.4c0,40,32.4,72.4,72.4,72.4c40,0,72.4-32.4,72.4-72.4c0-40-32.4-72.4-72.4-72.4
				C897.6,723.1,865.2,755.5,865.2,795.4z M995.3,795.4c0,31.9-25.8,57.7-57.7,57.7c-31.9,0-57.7-25.8-57.7-57.7
				c0-31.9,25.8-57.7,57.7-57.7C969.4,737.7,995.3,763.6,995.3,795.4z"/>
			<path class="st4" d="M875.1,795.4c0,34.5,28,62.5,62.5,62.5c34.5,0,62.5-28,62.5-62.5c0-34.5-28-62.5-62.5-62.5
				C903.1,733,875.1,760.9,875.1,795.4z M995.3,795.4c0,31.9-25.8,57.7-57.7,57.7c-31.9,0-57.7-25.8-57.7-57.7
				c0-31.9,25.8-57.7,57.7-57.7C969.4,737.7,995.3,763.6,995.3,795.4z"/>
			<rect x="792.3" y="788.1" class="st4" width="145.8" height="9.1"/>
			<rect x="792.3" y="792.6" class="st4" width="145.8" height="4.5"/>
			<path class="st4" d="M803.2,755.9c0.3,1.4,0,74,0,74s0.8,8.2-5,8.2c-5.9,0-13.7-5.5-14.2-28.3c-0.5-22.8-18.9-29.3-16.9-44.7
				C769,749.7,794.9,721.3,803.2,755.9z"/>
			<path class="st4" d="M771.8,753.3C771.8,753.3,771.8,753.3,771.8,753.3c15.3-13.3,22-3.4,22-3.4V837c1.5,0.8,3,1.1,4.4,1.1
				c5.9,0,5-8.2,5-8.2s0.3-72.6,0-74C796.8,729.3,780.1,740,771.8,753.3z"/>
			<g>
				<polygon class="st38" points="958.1,749.9 958.1,771.4 940.9,794.7 925.1,817.6 925.1,836.8 918.1,836.8 918.1,815.4 
					935.2,790.6 951.2,769.1 951.2,749.9 				"/>
			</g>
			<path class="st38" d="M921.1,809.8c3.9,0,7,3.2,7,7v19.5c0,3.9-3.2,7-7,7l0,0c-3.9,0-7-3.2-7-7v-19.5
				C914.1,813,917.3,809.8,921.1,809.8L921.1,809.8z"/>
			<path class="st38" d="M954.6,741.2c3.9,0,7,3.2,7,7v19.5c0,3.9-3.2,7-7,7l0,0c-3.9,0-7-3.2-7-7v-19.5
				C947.6,744.3,950.8,741.2,954.6,741.2L954.6,741.2z"/>
			<path class="st4" d="M921.1,843.5c3.9,0,7-3.2,7-7v-19.5c0-3.9-3.2-7-7-7h0L921.1,843.5L921.1,843.5z"/>
			<path class="st4" d="M954.5,741.2v33.6c0,0,0.1,0,0.1,0c3.9,0,7-3.2,7-7v-19.5c0-3.9-3.2-7-7-7
				C954.6,741.2,954.6,741.2,954.5,741.2z"/>
		</g>
	</g>
</g>
</svg>
